<?xml version="1.0" encoding="utf-8"?>
<!-- Generator: Adobe Illustrator 18.1.0, SVG Export Plug-In . SVG Version: 6.00 Build 0)  -->
<svg version="1.1" id="Layer_1" xmlns="http://www.w3.org/2000/svg" xmlns:xlink="http://www.w3.org/1999/xlink" width="19" height="23">
<g>
	<g>
		<path fill="#FFFFFF" d="M18.4,7.8c-1.1-1.7-3.4-2.3-4.6-2.3s-3.5,1.1-4.2,1.1c-0.8,0-2.2-1-3.9-1C4,5.6,0,7,0,12.5C0,18,4,23,6,23
			c1.5,0,2.3-0.9,3.9-0.9c1.7,0,2.4,0.9,3.8,0.9c1.9,0,3.8-2.3,5.3-6.1c-2.1-0.8-3.1-3-3.1-4.7C15.9,10.4,16.6,9,18.4,7.8z"/>
		<path fill="#FFFFFF" d="M9.5,5.3c2.8,0,4.6-2.1,4.6-5.3C12.6,0,9.5,1.6,9.5,5.3z"/>
	</g>
</g>
</svg>
