<?xml version="1.0" encoding="utf-8"?>
<!-- Generator: Adobe Illustrator 18.1.0, SVG Export Plug-In . SVG Version: 6.00 Build 0)  -->
<svg version="1.1" xmlns="http://www.w3.org/2000/svg" xmlns:xlink="http://www.w3.org/1999/xlink" width="166" height="152">
<g xmlns="http://www.w3.org/2000/svg">
	<polygon fill="none" stroke="#FFFFFF" stroke-width="1.5" points="70.9,147 7,147 7,57.1 29,57.1 39,71.2   48.5,57.1 70.9,57.1  "/>
	<path fill="none" stroke="#FFFFFF" stroke-width="1.5" d="M29,57.1v-9c-4.5,0-6.7-7-6.7-14.5   c0-7.5,0-0.9,0-16.4c0-18.1,32.4-17.6,32.4,0c0,8.7,0,6.4,0,9.9l3.5,6.5h-3.7v14h-5.9v9.5"/>
	<path fill="none" stroke="#FFFFFF" stroke-width="1.5" d="M7,60.7c-3.5,0-6,2-6,6.5c0,4.5,0,19.6,0,23.6   c0,6.3,3.5,6.7,6,6.7"/>
	<path fill="none" stroke="#FFFFFF" stroke-width="1.5" d="M70.9,97.5c3.5,0,6-2,6-6.5c0-4.5,0-19.6,0-23.6   c0-6.3-3.5-6.7-6-6.7"/>
	<path fill="#FFFFFF" d="M23.6,39.7c3.1-0.6,8.3-0.6,8.3-3.7c0-6.1,1.4-9.3,5.7-9.3c0.8-3,1.3-4.6,1.3-9h15.6   c0-16.6-32.2-19-32.2-0.6c0,18.5,0,14.2,0,16.4C22.3,35.8,23.6,39.7,23.6,39.7z"/>
	<polygon fill="none" stroke="#FFFFFF" stroke-width="1.5" points="95.1,147 159,147 159,57.1 137,57.1   127,71.2 117.5,57.1 95.1,57.1  "/>
	<path fill="none" stroke="#FFFFFF" stroke-width="1.5" d="M137,57.1v-9c4.5,0,6.7-7,6.7-14.5   c0-7.5,0-0.9,0-16.4l-0.1-2.8c0-17.6-32.4-18.1-32.4,0v5.9c0,0,0.1,3.3,0.1,6.8l-3.5,6.5h3.7v14h5.9v9.5"/>
	<path fill="none" stroke="#FFFFFF" stroke-width="1.5" d="M159,60.7c3.5,0,6,2,6,6.5   c0,4.5,0,19.6,0,23.6c0,6.3-3.5,6.7-6,6.7"/>
	<path fill="none" stroke="#FFFFFF" stroke-width="1.5" d="M95.1,97.5c-3.5,0-6-2-6-6.5c0-4.5,0-19.6,0-23.6   c0-6.3,3.5-6.7,6-6.7"/>
	<path fill="none" stroke="#FFFFFF" stroke-width="1.5" d="M142.8,41.4c-6.1,0-8.8-4.4-8.8-7   c0-2.6-1.6-6.7-5.8-6.7v-7.4l7.3-5.2V2.7"/>
	<path fill="none" stroke="#FFFFFF" stroke-width="1.5" d="M143.4,14.4"/>
	<g>
		<line fill="none" stroke="#FFFFFF" stroke-width="1.5" x1="76.9" y1="68.4" x2="88.6" y2="68.4"/>
		<line fill="none" stroke="#FFFFFF" stroke-width="1.5" x1="76.9" y1="88.2" x2="88.6" y2="88.2"/>
	</g>
	<path fill="none" stroke="#FFFFFF" stroke-width="1.5" d="M112.1,9.6c9.9,0,16-2.5,18.7-8.6"/>


</g>
</svg>
