<?xml version="1.0" encoding="utf-8"?>
<!-- Generator: Adobe Illustrator 18.1.0, SVG Export Plug-In . SVG Version: 6.00 Build 0)  -->
<svg version="1.1" id="Layer_1" xmlns="http://www.w3.org/2000/svg" xmlns:xlink="http://www.w3.org/1999/xlink" width="138" height="208">
<g>
	<path fill="none" stroke="#FFFFFF" stroke-width="1.5" d="M83.2,189.1l5.5-10.2h40.9c5.9,0,7.2-8.3,7.3-9.1
		V120h-2.7l0.6-1.4c0-0.1,2.1-5.3,2.1-12.2V65H134l0.7-1.4c0,0,2.2-4.7,2.2-10.4v-46c0-3.9-2.8-6.2-7.3-6.2H10.2
		C7.7,1,5.7,1.7,4.5,3C3.5,4.1,3,5.5,3,7.2v45.9c0,5.7,2.2,10.3,2.2,10.4l0.7,1.4H3v41.5c0,6.9,2.1,12.2,2.1,12.2l0.6,1.4H3v49.9
		c0.1,0.8,1.4,9.1,7.3,9.1h41l5.5,10.2"/>
	<polyline fill="none" stroke="#FFFFFF" stroke-width="1.5" points="3,207 3,189.2 137,189.2 137,207 	"/>
</g>
</svg>
