<?xml version="1.0" encoding="utf-8"?>
<!-- Generator: Adobe Illustrator 18.1.0, SVG Export Plug-In . SVG Version: 6.00 Build 0)  -->
<svg version="1.1" id="Layer_1" xmlns="http://www.w3.org/2000/svg" xmlns:xlink="http://www.w3.org/1999/xlink" width="25" height="32">
<g>
	<g>
		<polygon fill="#FFFFFF" points="25,9.9 12.6,10.1 0.1,10 0,3.8 12.6,6.4 25,4.1 		"/>
		<g>
			<path fill="#FFFFFF" d="M12.5,2.1c6.3,0,8.9,0.9,9.8,1.5c-1.6,0.8-5.2,2-9.8,2c-4.4,0-7.9-1.1-9.6-1.9C4.3,3.1,7.2,2.1,12.5,2.1
				 M12.5,0C3.8,0,0,2.5,0,3.9c0,1.4,5.6,3.9,12.5,3.9S25,5.3,25,3.9C25,2.5,23,0,12.5,0L12.5,0z"/>
		</g>
		<path fill="#FFFFFF" d="M25,9.9c0,1.4-2,3.9-12.5,3.9S0,11.3,0,9.9C0,8.5,5.6,10,12.5,10C19.4,10,25,8.5,25,9.9z"/>
	</g>
	<polyline fill="none" stroke="#FFFFFF" stroke-width="1.5" points="8.9,32 8.9,7 15.9,7 15.9,32 	"/>
</g>
</svg>
