<?xml version="1.0" encoding="utf-8"?>
<!-- Generator: Adobe Illustrator 18.1.0, SVG Export Plug-In . SVG Version: 6.00 Build 0)  -->
<svg version="1.1" id="Layer_1" xmlns="http://www.w3.org/2000/svg" xmlns:xlink="http://www.w3.org/1999/xlink" width="38" height="71">
<g>
	<path fill="none" stroke="#FFFFFF" stroke-width="1.5" d="M33,36.6V64c0,6.4-7.5,6.8-7.5,0V49l-10.1,0.1V31
		c0-5.8,6.1-6.7,7.3-1.9"/>
	<path fill="none" stroke="#FFFFFF" stroke-width="1.5" d="M15.4,31c0-6.8-7.2-6.4-7.2,0v18.1h9.5"/>
	<path fill="none" stroke="#FFFFFF" stroke-width="1.5" d="M8.2,31c0-6.8-7.2-6.4-7.2,0v14.3h7.2"/>
	<path fill="none" stroke="#FFFFFF" stroke-width="1.5" d="M29.7,39.2"/>
	<path fill="none" stroke="#FFFFFF" stroke-width="1.5" d="M4.7,26.1V7.2h25.6V14c0,0,6.7-0.8,6.7,4.2
		c0,5,0,18.3,0,18.3H20.1c0-5.7,2-7.4,6.5-7.4c4.5,0,2.6,0,2.6,0"/>
	<path fill="none" stroke="#FFFFFF" stroke-width="1.5" d="M15.4,14c0,14.9,13.8,15.2,13.8,15.2"/>
	<path fill="#FFFFFF" stroke="#FFFFFF" stroke-width="1.5" d="M4.7,7.2V1h30.7c0,2.1,0,8.7-5.1,8.7V7.2H4.7z"
		/>
	<line fill="none" stroke="#FFFFFF" stroke-width="1.5" x1="23.6" y1="36.6" x2="23.6" y2="41.7"/>
	<line fill="none" stroke="#FFFFFF" stroke-width="1.5" x1="25.4" y1="45.3" x2="25.4" y2="49"/>
</g>
</svg>
