<?xml version="1.0" encoding="utf-8"?>
<!-- Generator: Adobe Illustrator 18.1.0, SVG Export Plug-In . SVG Version: 6.00 Build 0)  -->
<svg version="1.1" xmlns="http://www.w3.org/2000/svg" xmlns:xlink="http://www.w3.org/1999/xlink" width="58" height="76">
   <g>
<path fill="#FFFFFF" stroke="#FFFFFF" stroke-width="1.5" d="M53.3,60.7l1,6.1L23.8,72
	c-0.3-2-1.4-8.6,3.7-9.5l0.4,2.5L53.3,60.7z"/>
<path fill="none" stroke="#FFFFFF" stroke-width="1.5" d="M41.6,55.8C39.2,41.1,29,42.5,29,42.5l-3.8,0.1
	L17,38.6c-6.6-7.7-9.3-12.8-16-7.9l8.2,11c0,0,6.2,8.9,10.3,13.5c3.3,3.8,7.6,3,7.6,3l1,6.2l25.1-4.2l0.5-18.4l1.2-24.6
	c0.9-5.2-4.9-6.8-6-0.9l-1.2,8.2l-3,0.3l0.1-17.3c-0.5-6-5.8-6-6,0.1l0,18.4l-3,0.5L33.3,4.7c-1-5.9-6.7-3.9-5.9,1L30,27.3L26.1,28
	L22.8,8.5c-1.2-6.9-8-5.8-6.9,1.2l5.1,30.6"/>
</g>
</svg>
