<?xml version="1.0" encoding="utf-8"?>
<!-- Generator: Adobe Illustrator 18.1.0, SVG Export Plug-In . SVG Version: 6.00 Build 0)  -->
<svg version="1.1" id="Layer_1" xmlns="http://www.w3.org/2000/svg" xmlns:xlink="http://www.w3.org/1999/xlink" width="42" height="71">
<g>
	<path fill="none" stroke="#FFFFFF" stroke-width="1.5" d="M5,33.4V6c0-6.4,7.5-6.8,7.5,0v15l10.1-0.1V39
		c0,5.8-6.1,6.7-7.3,1.9"/>
	<path fill="none" stroke="#FFFFFF" stroke-width="1.5" d="M22.6,39c0,6.8,7.2,6.4,7.2,0V20.9h-9.5"/>
	<path fill="none" stroke="#FFFFFF" stroke-width="1.5" d="M29.8,39c0,6.8,7.2,6.4,7.2,0V24.7h-7.2"/>
	<path fill="none" stroke="#FFFFFF" stroke-width="1.5" d="M8.3,30.8"/>
	<path fill="none" stroke="#FFFFFF" stroke-width="1.5" d="M33.3,43.9v18.9H7.7V56c0,0-6.7,0.8-6.7-4.2
		s0-18.3,0-18.3h16.9c0,5.7-2,7.4-6.5,7.4s-2.6,0-2.6,0"/>
	<path fill="none" stroke="#FFFFFF" stroke-width="1.5" d="M22.6,56c0-14.9-13.8-15.2-13.8-15.2"/>
	<path fill="#FFFFFF" stroke="#FFFFFF" stroke-width="1.5" d="M33.3,62.8V69H2.6c0-2.1,0-8.7,5.1-8.7v2.5H33.3
		z"/>
	<line fill="none" stroke="#FFFFFF" stroke-width="1.5" x1="14.4" y1="33.4" x2="14.4" y2="28.3"/>
	<line fill="none" stroke="#FFFFFF" stroke-width="1.5" x1="12.6" y1="24.7" x2="12.6" y2="21"/>
</g>
</svg>
