<?xml version="1.0" encoding="utf-8"?>
<!-- Generator: Adobe Illustrator 18.1.0, SVG Export Plug-In . SVG Version: 6.00 Build 0)  -->
<svg version="1.1" id="Layer_1" xmlns="http://www.w3.org/2000/svg" xmlns:xlink="http://www.w3.org/1999/xlink" width="66" height="74">
<g>
	<path fill="none" stroke="#FFFFFF" stroke-width="1.5" d="M38.4,43.2c-8.5,0-8,9.5,0,9.5H65V40.6"/>
	<path fill="none" stroke="#FFFFFF" stroke-width="1.5" d="M38.4,52.3c-8.5,0-8,9.5,0,9.5H65V49.7"/>
	<path fill="none" stroke="#FFFFFF" stroke-width="1.5" d="M38.4,61.5c-8.5,0-8,9.5,0,9.5h21.9v-9.1"/>
	<path fill="none" stroke="#FFFFFF" stroke-width="1.5" d="M32.2,66.3H8.7V33.8h8.5c0,0,0-19.2,0-27.1
		c0-7.8,10.2-7.4,10.2,0c0,7.4,0,18.5,0,18.5h32.3c1.9,0,5.3,2.5,5.3,6.2v12.1H38.4c-8,0-8.5-9.5,0-9.5h14.2v-4.7"/>
	<path fill="none" stroke="#FFFFFF" stroke-width="1.5" d="M17.2,52.7c8.6,0,15-5.1,15-5.1"/>
	<path fill="#FFFFFF" stroke="#FFFFFF" stroke-width="1.5" d="M8.7,66.3H1v-39c2.6,0,10.8,0,10.8,6.5H8.7V66.3
		z"/>
</g>
</svg>
