<?xml version="1.0" encoding="utf-8"?>
<!-- Generator: Adobe Illustrator 18.1.0, SVG Export Plug-In . SVG Version: 6.00 Build 0)  -->
<svg version="1.1" id="Layer_1" xmlns="http://www.w3.org/2000/svg" xmlns:xlink="http://www.w3.org/1999/xlink">
<line fill="none" stroke="#FFFFFF" stroke-width="2" x1="0" y1="1" x2="20" y2="1"/>
<line fill="none" stroke="#FFFFFF" stroke-width="2" x1="0" y1="7" x2="6" y2="7"/>
<line fill="none" stroke="#FFFFFF" stroke-width="2" x1="0" y1="13" x2="6" y2="13"/>
<line fill="none" stroke="#FFFFFF" stroke-width="2" x1="0" y1="19" x2="6" y2="19"/>
<line fill="none" stroke="#FFFFFF" stroke-width="2" x1="0" y1="25" x2="6" y2="25"/>
<line fill="none" stroke="#FFFFFF" stroke-width="2" x1="0" y1="31" x2="6" y2="31"/>
<line fill="none" stroke="#FFFFFF" stroke-width="2" x1="0" y1="37" x2="6" y2="37"/>
<line fill="none" stroke="#FFFFFF" stroke-width="2" x1="0" y1="43" x2="6" y2="43"/>
<line fill="none" stroke="#FFFFFF" stroke-width="2" x1="0" y1="49" x2="6" y2="49"/>
<line fill="none" stroke="#FFFFFF" stroke-width="2" x1="0" y1="55" x2="6" y2="55"/>
<line fill="none" stroke="#FFFFFF" stroke-width="2" x1="306" y1="1" x2="286" y2="1"/>
<line fill="none" stroke="#FFFFFF" stroke-width="2" x1="306" y1="7" x2="300" y2="7"/>
<line fill="none" stroke="#FFFFFF" stroke-width="2" x1="306" y1="13" x2="300" y2="13"/>
<line fill="none" stroke="#FFFFFF" stroke-width="2" x1="306" y1="19" x2="300" y2="19"/>
<line fill="none" stroke="#FFFFFF" stroke-width="2" x1="306" y1="25" x2="300" y2="25"/>
<line fill="none" stroke="#FFFFFF" stroke-width="2" x1="306" y1="31" x2="300" y2="31"/>
<line fill="none" stroke="#FFFFFF" stroke-width="2" x1="306" y1="37" x2="300" y2="37"/>
<line fill="none" stroke="#FFFFFF" stroke-width="2" x1="306" y1="43" x2="300" y2="43"/>
<line fill="none" stroke="#FFFFFF" stroke-width="2" x1="306" y1="49" x2="300" y2="49"/>
<line fill="none" stroke="#FFFFFF" stroke-width="2" x1="306" y1="55" x2="300" y2="55"/>
</svg>
