<?xml version="1.0" encoding="utf-8" ?>
<!-- Generator: Adobe Illustrator 18.1.0, SVG Export Plug-In . SVG Version: 6.00 Build 0)  -->
<svg version="1.1" id="Layer_1" xmlns="http://www.w3.org/2000/svg" xmlns:xlink="http://www.w3.org/1999/xlink" width="349" height="248">
  <g>
    <path fill="none" stroke="#FFFFFF" stroke-width="1.5" d="M14,2c15,0,27,12,27,27v17h-39v-44H14z" />
    <path fill="none" stroke="#FFFFFF" stroke-width="1.5" d="M16,2h305c15,0,27,12,27,27v17h-307" />
    <path fill="none" stroke="#FFFFFF" stroke-width="1.5" d="M32,46v138c0,8-11,7-11,0c0-6,0-9,0-16 c0-6-9-8-9,0v80" />
    <line fill="none" stroke="#FFFFFF" stroke-width="1.5" x1="318" y1="189" x2="318" y2="248" />
    <path fill="none" stroke="#FFFFFF" stroke-width="1.5" d="M25,189.5L332,189.5c3,0,6-2,6-5V46" />
    <line fill="none" stroke="#FFFFFF" stroke-width="1.5" x1="2" y1="248" x2="2" y2="46" />
    <polyline fill="none" stroke="#FFFFFF" stroke-width="1.5" points="9,46 9,151 22,151 22,46" />
    <polyline fill="none" stroke="#FFFFFF" stroke-width="1.5" points="27,46 27,151 22,151 " />
    <line fill="none" stroke="#FFFFFF" stroke-width="1.5" x1="52" y1="35" x2="76" y2="35" />
    <rect x="81" y="29" fill="none" stroke="#FFFFFF" stroke-width="1.5" width="26" height="6" />
    <path fill="none" stroke="#FFFFFF" stroke-width="1.5" d="M22,31c0-4-4-8-8-8" />
  </g>
</svg>
