<?xml version="1.0" encoding="utf-8"?>
<!-- Generator: Adobe Illustrator 18.1.0, SVG Export Plug-In . SVG Version: 6.00 Build 0)  -->
<svg version="1.1" xmlns="http://www.w3.org/2000/svg" xmlns:xlink="http://www.w3.org/1999/xlink" width="90" height="148">
	 <g>
<g>
	<rect x="1" y="13" stroke="#FFFFFF" stroke-width="1.5" stroke-linejoin="round" width="88" height="59"/>
	<polygon stroke="#FFFFFF" stroke-width="1.5" stroke-linejoin="round" points="81,60.2 44.7,72 44.7,13 81,1
			"/>
	<polygon stroke="#FFFFFF" stroke-width="1.5" stroke-linejoin="round" points="81,1 88.8,13 88.8,72 81,60.2
			"/>
	<circle fill="none" stroke="#FFFFFF" stroke-width="1.5" cx="23.4" cy="43.1" r="6.2"/>
	<line stroke="#FFFFFF" stroke-width="1.5" x1="63" y1="42" x2="63" y2="29"/>
</g>
<g>
	<rect x="1" y="86" stroke="#FFFFFF" stroke-width="1.5" stroke-linejoin="round" width="88" height="59"/>
	<polygon stroke="#FFFFFF" stroke-width="1.5" stroke-linejoin="round" points="9,133.2 45.2,145 45.2,86
		9,74 	"/>
	<polygon stroke="#FFFFFF" stroke-width="1.5" stroke-linejoin="round" points="9,74 1.2,86 1.2,145 9,133.2
		"/>
	<g>
		<path fill="none" stroke="#FFFFFF" stroke-width="1.5" d="M33.6,110.1c0-3.4-2.4-6.6-5.3-7
			c-2.9-0.5-5.3,1.8-5.3,5.1c0,3.3,2.4,6.4,5.3,7C31.2,115.8,33.6,113.5,33.6,110.1z"/>
	</g>
	<line stroke="#FFFFFF" stroke-width="1.5" x1="68" y1="122" x2="68" y2="109"/>
</g></g>
</svg>
