<?xml version="1.0" standalone="no"?>
<!DOCTYPE svg PUBLIC "-//W3C//DTD SVG 1.1//EN" "http://www.w3.org/Graphics/SVG/1.1/DTD/svg11.dtd" >
<svg xmlns="http://www.w3.org/2000/svg" xmlns:xlink="http://www.w3.org/1999/xlink" version="1.1">
<metadata></metadata>
<defs>
<font id="sid_lee_eb_extraboldextrabold" horiz-adv-x="1513" >
<font-face units-per-em="2048" ascent="1536" descent="-512" />
<missing-glyph horiz-adv-x="733" />
<glyph unicode="&#xfb01;" horiz-adv-x="2025" d="M98 0v1425h1174v-409h-670v-193h563v-303h-563v-520h-504zM1423 0v1425h504v-1425h-504z" />
<glyph unicode="&#xfb02;" horiz-adv-x="2562" d="M98 0v1425h1174v-409h-670v-193h563v-303h-563v-520h-504zM1423 0v1425h504v-1015h623v-410h-1127z" />
<glyph horiz-adv-x="0" />
<glyph horiz-adv-x="682" />
<glyph unicode=" "  horiz-adv-x="733" />
<glyph unicode="&#x09;" horiz-adv-x="733" />
<glyph unicode="&#xa0;" horiz-adv-x="733" />
<glyph unicode="!" horiz-adv-x="700" d="M98 1425h498l-66 -919h-366zM131 188q0 98 60.5 158t154.5 60q95 0 156 -60.5t61 -157.5t-61 -157t-156 -60t-155 60t-60 157z" />
<glyph unicode="&#x22;" horiz-adv-x="897" d="M61 885l13 540h368l-102 -540h-279zM479 885l13 540h368l-102 -540h-279z" />
<glyph unicode="#" horiz-adv-x="1140" d="M35 692l37 209h170l26 148h-172l35 196h170l33 180h213l-33 -180h205l33 180h213l-33 -180h174l-35 -196h-172l-27 -148h175l-37 -209h-172l-31 -180h-213l31 180h-205l-31 -180h-213l31 180h-172zM455 901h204l27 148h-205z" />
<glyph unicode="$" horiz-adv-x="1462" d="M86 244l252 276q100 -89 191.5 -132.5t199.5 -43.5q127 0 127 82q0 29 -23.5 50t-64 34.5t-92.5 26t-109.5 28.5t-115 37t-109.5 55.5t-92.5 80.5t-64 116t-23.5 158q0 182 127.5 302t339.5 148v158h245v-158q168 -25 302.5 -106.5t193.5 -163.5l-246 -231 q-60 73 -154 119t-173 46q-115 0 -115 -73q0 -33 23.5 -58t63.5 -42t92 -32t109 -31.5t114 -37t109 -52.5t92 -74t63.5 -106t23.5 -143q0 -207 -139.5 -340.5t-358.5 -165.5v-151h-245v151q-160 19 -305 96.5t-238 176.5z" />
<glyph unicode="%" horiz-adv-x="1861" d="M45 1071q0 191 94.5 291t282.5 100t282.5 -101t94.5 -290q0 -191 -94.5 -292t-282.5 -101t-282.5 101t-94.5 292zM211 0l1059 1425h381l-1059 -1425h-381zM352 1071q0 -59 14.5 -92t55.5 -33t55.5 33t14.5 92q0 58 -14.5 90.5t-55.5 32.5t-55.5 -32.5t-14.5 -90.5z M1063 365q0 191 94.5 291t282.5 100t282.5 -101t94.5 -290q0 -192 -94.5 -293t-282.5 -101t-282.5 101t-94.5 293zM1370 365q0 -59 14.5 -92t55.5 -33t55 33t14 92q0 58 -14 90t-55 32t-55.5 -32.5t-14.5 -89.5z" />
<glyph unicode="&#x26;" horiz-adv-x="1552" d="M49 459q0 88 28 166.5t98 151.5t177 118q-6 35 -6 90q0 214 134.5 345.5t361.5 131.5q119 0 223.5 -59t175.5 -178l-190 -195q-31 28 -55.5 37.5t-57.5 9.5q-54 0 -83.5 -29t-29.5 -73q0 -73 84 -176l115 -144q28 45 45 109h283q-23 -198 -142 -342l336 -422h-565 q-41 48 -86 106q-175 -135 -348 -135q-219 0 -358.5 140.5t-139.5 347.5zM436 520q0 -87 52.5 -137.5t136.5 -50.5q41 0 77 16l-221 281q-45 -36 -45 -109z" />
<glyph unicode="'" horiz-adv-x="514" d="M57 1274q0 84 51.5 136t133.5 52q207 0 207 -272q0 -76 -28.5 -144t-74 -114t-99.5 -75t-108 -34l-26 97q67 23 106 70t39 100h-20q-82 0 -131.5 51.5t-49.5 132.5z" />
<glyph unicode="(" horiz-adv-x="872" d="M53 563q0 702 729 1004l74 -111q-161 -143 -244.5 -355.5t-83.5 -537.5t83.5 -537.5t244.5 -355.5l-74 -110q-729 302 -729 1003z" />
<glyph unicode=")" horiz-adv-x="872" d="M16 -330q161 143 244.5 355.5t83.5 537.5t-83.5 537.5t-244.5 355.5l74 111q729 -302 729 -1004q0 -701 -729 -1003z" />
<glyph unicode="*" horiz-adv-x="1028" d="M154 987l184 84l-184 84l106 184l168 -118l-20 204h213l-21 -204l168 118l106 -184l-186 -84l186 -84l-106 -184l-168 117l21 -203h-213l20 203l-168 -117z" />
<glyph unicode="+" horiz-adv-x="1028" d="M74 580v249h313v285h254v-285h313v-249h-313v-269h-254v269h-313z" />
<glyph unicode="," horiz-adv-x="514" d="M57 156q0 84 51.5 136t133.5 52q207 0 207 -272q0 -76 -28.5 -144t-74 -114t-99.5 -75t-108 -34l-26 96q67 23 106 70t39 100h-20q-82 0 -131.5 52t-49.5 133z" />
<glyph unicode="-" horiz-adv-x="765" d="M45 362v300h676v-300h-676z" />
<glyph unicode="." horiz-adv-x="485" d="M57 158q0 84 52 135t133 51q82 0 134 -51t52 -135t-52 -135.5t-134 -51.5q-81 0 -133 51.5t-52 135.5z" />
<glyph unicode="/" horiz-adv-x="1017" d="M25 0l512 1425h456l-514 -1425h-454z" />
<glyph unicode="0" horiz-adv-x="1507" d="M45 717q0 362 177.5 553.5t531.5 191.5q352 0 530 -193t178 -552t-178 -552.5t-530 -193.5t-530.5 193.5t-178.5 552.5zM532 717q0 -202 52 -289.5t170 -87.5q117 0 169 87.5t52 289.5t-52 289.5t-169 87.5q-118 0 -170 -87.5t-52 -289.5z" />
<glyph unicode="1" horiz-adv-x="882" d="M20 958v230q59 10 105 24t98 39.5t93.5 69.5t68.5 104h399v-1425h-503v958h-261z" />
<glyph unicode="2" horiz-adv-x="1320" d="M78 362l584 461q53 41 82.5 91.5t29.5 93.5q0 37 -23.5 60.5t-64.5 23.5q-111 0 -111 -187h-497q0 254 159.5 405.5t454.5 151.5q149 0 263 -36.5t184.5 -102.5t105.5 -153.5t35 -194.5q0 -56 -9.5 -107t-24 -92.5t-41 -80.5t-53 -69.5t-67.5 -61.5t-76 -54t-87.5 -51 t-93 -47.5t-101.5 -46.5h557v-365h-1165z" />
<glyph unicode="3" horiz-adv-x="1341" d="M41 483h494v-32q0 -65 31.5 -101.5t86.5 -36.5t85 36.5t30 101.5q0 172 -115 172h-121v231h121q30 0 50.5 14t30.5 37t14 45.5t4 48.5q0 123 -99 123q-49 0 -73.5 -38t-24.5 -85v-18h-455q-7 89 11 162.5t52.5 122t86 86t103.5 57.5t113.5 33t108 16.5t93.5 3.5 q56 0 114.5 -6.5t127.5 -21.5t128 -44t109 -69.5t79 -103.5t29 -140q0 -56 -15 -105t-37.5 -81.5t-53 -59.5t-57.5 -42t-56 -26t-44 -15t-25 -5q15 -2 29 -4.5t51 -13t67 -24.5t68.5 -42t65 -62.5t46.5 -88t23 -117.5v-20q0 -400 -649 -400q-83 0 -150.5 5t-137.5 19.5 t-122.5 38.5t-99 63t-74 92t-40 127.5t-3.5 166.5z" />
<glyph unicode="4" horiz-adv-x="1388" d="M37 223v277l690 925h479v-925h146v-277h-146v-223h-504v223h-665zM418 500h284v381z" />
<glyph unicode="5" horiz-adv-x="1341" d="M51 483h494v-32q0 -138 108 -138q64 0 89.5 42.5t25.5 148.5q0 44 -4 76.5t-15.5 64t-35.5 48t-60 16.5q-41 0 -69 -23t-31 -59h-459l72 798h1040v-376h-657v-191q41 29 104 46.5t125 17.5q259 0 392.5 -115t142.5 -315v-39q0 -254 -157 -368t-488 -114q-83 0 -149.5 5 t-136 19.5t-121 38.5t-97 63t-72 92t-38.5 127.5t-3 166.5z" />
<glyph unicode="6" horiz-adv-x="1409" d="M41 721q0 115 23 219t76 201t133 167t201.5 112t273.5 42q256 0 397 -134t141 -372h-498q0 39 -5.5 66.5t-26 48.5t-56.5 21q-57 0 -89.5 -52t-32.5 -143q0 -52 12 -113q113 86 393 86q86 0 153 -17.5t122 -58t84.5 -115.5t29.5 -181q0 -128 -49.5 -230t-135.5 -166 t-198 -97.5t-241 -33.5q-351 0 -529 182.5t-178 567.5zM600 489q0 -88 26 -129t81 -41q53 0 79.5 46.5t26.5 123.5q0 86 -24.5 127t-81.5 41q-107 0 -107 -168z" />
<glyph unicode="7" horiz-adv-x="1200" d="M37 956v469h1147v-286q-11 -18 -31.5 -52.5t-80 -149.5t-117 -239t-132 -314.5t-135.5 -383.5h-547q163 442 490 956h-594z" />
<glyph unicode="8" horiz-adv-x="1347" d="M27 391q0 66 16 121t40.5 90t57.5 62t63.5 41t61.5 23t49 11.5t28 3.5h3q-11 2 -18.5 3.5t-37.5 11t-52 22t-52.5 38t-50.5 56.5t-34.5 79.5t-14.5 105.5q0 70 23 129t60 99.5t88.5 72.5t105 50.5t112.5 30.5t106.5 16.5t92.5 4.5t92.5 -4.5t106.5 -16.5t112.5 -30.5 t105 -50.5t88.5 -72.5t60 -99.5t23 -129q0 -76 -25.5 -136.5t-59 -92t-75 -53t-65 -27.5t-36.5 -7q211 -23 285 -181q35 -73 35 -171q0 -420 -647 -420t-647 420zM555 451q0 -65 30 -101.5t85 -36.5t84.5 36.5t29.5 101.5q0 80 -26 116.5t-88 36.5t-88.5 -36.5t-26.5 -116.5 zM571 1001q0 -122 99 -122q98 0 98 122q0 47 -24.5 83t-73.5 36q-50 0 -74.5 -36.5t-24.5 -82.5z" />
<glyph unicode="9" horiz-adv-x="1409" d="M37 932q0 128 49.5 230.5t135.5 167t198.5 98.5t241.5 34q350 0 528 -184t178 -569q0 -117 -24.5 -223t-79 -201t-135 -164t-200.5 -109.5t-267 -40.5q-284 0 -432 134t-148 374h498q0 -40 5.5 -67t26 -48.5t56.5 -21.5q57 0 90 55t33 146q0 45 -13 112 q-62 -47 -142.5 -68.5t-209.5 -21.5q-87 0 -153.5 16.5t-121.5 56.5t-84.5 114t-29.5 180zM596 938q0 -86 24.5 -129t81.5 -43q107 0 107 172q0 176 -107 176q-53 0 -79.5 -49t-26.5 -127z" />
<glyph unicode=":" horiz-adv-x="485" d="M57 166q0 80 53 133t132 53q81 0 133.5 -53t52.5 -133q0 -82 -52 -134t-134 -52q-80 0 -132.5 52.5t-52.5 133.5zM57 715q0 81 52.5 133.5t132.5 52.5q82 0 134 -52t52 -134q0 -80 -52.5 -133.5t-133.5 -53.5q-79 0 -132 53.5t-53 133.5z" />
<glyph unicode=";" horiz-adv-x="499" d="M57 164q0 84 51.5 136t133.5 52q207 0 207 -272q0 -76 -28.5 -144t-74 -114t-99.5 -75t-108 -34l-26 97q67 23 106 70t39 100h-20q-82 0 -131.5 51.5t-49.5 132.5zM57 717q0 80 52 133t133 53q80 0 133 -53.5t53 -132.5q0 -82 -53 -135.5t-133 -53.5q-81 0 -133 53.5 t-52 135.5z" />
<glyph unicode="&#x3c;" horiz-adv-x="892" d="M78 578v270l745 287v-308l-485 -122l485 -107v-307z" />
<glyph unicode="=" horiz-adv-x="1028" d="M74 383v250h880v-250h-880zM74 776v250h880v-250h-880z" />
<glyph unicode="&#x3e;" horiz-adv-x="892" d="M70 291v307l485 107l-485 122v308l745 -287v-270z" />
<glyph unicode="?" horiz-adv-x="1300" d="M57 1012q0 81 24.5 148t63.5 112.5t93.5 80.5t109.5 55t117 33t109.5 17t93.5 4t93.5 -4.5t104.5 -17t108 -32.5t99.5 -53t83.5 -76t56.5 -105t21.5 -136q0 -66 -14.5 -120t-33.5 -88t-55 -67t-61 -49t-70 -42q-31 -18 -105 -46t-113.5 -55t-39.5 -65h-366 q0 138 49 218.5t149 137.5q6 3 32.5 17.5t33 19t26 17.5t25.5 21.5t16.5 23t13.5 30.5t3 35q0 34 -26 54t-64 20q-12 0 -23 -3t-28.5 -14t-28 -40.5t-10.5 -73.5v-39h-482q-6 46 -6 82zM344 188q0 98 60 158t155 60t156 -60.5t61 -157.5t-61 -157t-156 -60t-155 60t-60 157z " />
<glyph unicode="@" horiz-adv-x="1757" d="M37 748q0 392 219.5 594t622.5 202q192 0 347 -51.5t264 -150t168 -247t60 -335.5q0 -91 -11.5 -161t-42 -132t-80.5 -102t-129 -63t-185 -23q-60 0 -111.5 15.5t-81.5 37.5t-51.5 43.5t-29.5 36.5l-9 16q-36 -49 -93.5 -75.5t-121.5 -26.5q-88 0 -157.5 34t-112.5 92 t-65.5 129t-22.5 150q0 81 22.5 153t65.5 129t112.5 90.5t157.5 33.5q109 0 197 -58v45h323v-493q0 -101 56 -101q30 0 51.5 8.5t40.5 30.5t29 67.5t10 113.5q0 142 -44 249t-124.5 173t-188.5 98.5t-243 32.5q-279 0 -434.5 -148.5t-155.5 -406.5q0 -264 157.5 -430 t432.5 -166q81 0 161 22l70 -233q-109 -31 -231 -31q-396 0 -619 223.5t-223 614.5zM729 731q0 -107 30.5 -153t94.5 -46t93.5 46t29.5 153v21q-3 95 -32.5 136.5t-90.5 41.5q-64 0 -94.5 -46t-30.5 -153z" />
<glyph unicode="A" d="M-8 0l520 1425h510l500 -1425h-533l-55 190h-449l-63 -190h-430zM582 473h270l-123 428z" />
<glyph unicode="B" horiz-adv-x="1462" d="M98 0v1425h729q151 0 260.5 -25t171 -71t89.5 -102t28 -125q0 -146 -77 -223t-230 -103q182 -23 275.5 -109.5t93.5 -273.5q0 -173 -151 -283t-419 -110h-770zM602 348h98q106 0 155.5 28t49.5 116q0 80 -45 109.5t-160 29.5h-98v-283zM602 848h105q153 0 153 117 q0 62 -31.5 88t-121.5 26h-105v-231z" />
<glyph unicode="C" horiz-adv-x="1544" d="M45 717q0 344 193.5 544.5t549.5 200.5q323 0 499 -142t231 -448h-531q-2 102 -51 162t-148 60q-210 0 -210 -377t210 -377q109 0 153.5 55t47.5 162h531q-54 -309 -229.5 -447.5t-502.5 -138.5q-347 0 -545 200t-198 546z" />
<glyph unicode="D" horiz-adv-x="1546" d="M98 0v1425h662q361 0 551 -179t190 -529q0 -154 -37 -276t-102 -204t-159 -136t-203.5 -77.5t-239.5 -23.5h-662zM602 369h137q82 0 130 29t74 106t26 213t-26 211t-73.5 102t-130.5 27h-137v-688z" />
<glyph unicode="E" horiz-adv-x="1333" d="M98 0v1425h1174v-409h-670v-144h563v-303h-563v-159h686v-410h-1190z" />
<glyph unicode="F" horiz-adv-x="1325" d="M98 0v1425h1174v-409h-670v-193h563v-303h-563v-520h-504z" />
<glyph unicode="G" horiz-adv-x="1566" d="M45 717q0 350 197 547.5t546 197.5q321 0 490 -141t225 -449h-530q-2 113 -42.5 167.5t-142.5 54.5q-210 0 -210 -377q0 -188 48.5 -282.5t161.5 -94.5q84 0 120 43t44 135h-141v215h694v-733h-248l-61 145q-83 -97 -183 -135.5t-268 -38.5q-318 0 -509 201.5t-191 544.5 z" />
<glyph unicode="H" horiz-adv-x="1540" d="M98 0v1425h504v-491h336v491h504v-1425h-504v524h-336v-524h-504z" />
<glyph unicode="I" horiz-adv-x="700" d="M98 0v1425h504v-1425h-504z" />
<glyph unicode="J" horiz-adv-x="1073" d="M37 55l84 367q85 -41 130 -52.5t101 -11.5q53 0 80 42.5t27 101.5v514h-320v409h852v-858q0 -152 -44 -268t-122.5 -186.5t-180.5 -106t-224 -35.5q-223 0 -383 84z" />
<glyph unicode="K" horiz-adv-x="1519" d="M98 0v1425h504v-426l348 426h555l-430 -489l449 -936h-549l-258 528l-115 -131v-397h-504z" />
<glyph unicode="L" horiz-adv-x="1236" d="M98 0v1425h504v-1015h623v-410h-1127z" />
<glyph unicode="M" horiz-adv-x="1792" d="M80 0l41 1425h610l176 -520l166 520h594l45 -1425h-409l-27 807l-248 -807h-276l-240 797l-23 -797h-409z" />
<glyph unicode="N" horiz-adv-x="1507" d="M98 0v1425h520l377 -698v698h414v-1425h-520l-377 696v-696h-414z" />
<glyph unicode="O" horiz-adv-x="1613" d="M45 717q0 352 198.5 548.5t563.5 196.5t563.5 -196.5t198.5 -548.5q0 -351 -199 -548.5t-563 -197.5t-563 197.5t-199 548.5zM578 717q0 -200 52 -288.5t177 -88.5t177 88.5t52 288.5t-52 288.5t-177 88.5t-177 -88.5t-52 -288.5z" />
<glyph unicode="P" horiz-adv-x="1511" d="M98 0v1425h811q264 0 417 -133t153 -383q0 -249 -153 -381.5t-417 -132.5h-307v-395h-504zM602 717h119q114 0 169.5 36t55.5 138t-56 140t-169 38h-119v-352z" />
<glyph unicode="Q" horiz-adv-x="1613" d="M45 717q0 352 198.5 548.5t563.5 196.5t563.5 -196.5t198.5 -548.5q0 -392 -246 -590q28 -76 54.5 -103.5t62.5 -27.5q29 0 53 8l35 -86q-56 -97 -153.5 -155t-215.5 -58q-93 0 -169.5 62.5t-141.5 205.5q-7 0 -20.5 -1t-20.5 -1q-364 0 -563 197.5t-199 548.5zM578 717 q0 -200 52 -288.5t177 -88.5t177 88.5t52 288.5t-52 288.5t-177 88.5t-177 -88.5t-52 -288.5z" />
<glyph unicode="R" horiz-adv-x="1517" d="M98 0v1425h811q276 0 423 -119.5t147 -326.5q0 -316 -262 -401q98 -27 144 -95t46 -141q-1 -76 21 -110q16 -25 48 -25q12 0 27 4l31 -78q-54 -72 -151.5 -117t-200.5 -45q-105 0 -179.5 46.5t-95.5 134.5q-9 38 -15 86.5t-8.5 79t-13 63.5t-28.5 51.5t-54.5 30.5 t-91.5 12h-94v-475h-504zM602 717h119q114 0 169.5 36t55.5 138t-56 140t-169 38h-119v-352z" />
<glyph unicode="S" horiz-adv-x="1445" d="M20 240l252 276q92 -82 212.5 -128t236.5 -46q127 0 127 76q0 30 -25.5 51.5t-69 35.5t-100 26.5t-119 28.5t-125 36.5t-119 54.5t-100 79.5t-69 115.5t-25.5 158q0 211 175 334.5t472 123.5q119 0 235 -28t202 -71.5t147.5 -90t91.5 -88.5l-245 -232q-57 69 -178 114.5 t-208 45.5q-114 0 -114 -70q0 -37 32 -64t84.5 -42.5t119.5 -33.5t137.5 -35t137.5 -49.5t119.5 -74t84.5 -110.5t32 -158q0 -244 -186 -374t-512 -130q-227 0 -411.5 77.5t-291.5 191.5z" />
<glyph unicode="T" horiz-adv-x="1323" d="M16 1016v409h1291v-409h-394v-1016h-503v1016h-394z" />
<glyph unicode="U" horiz-adv-x="1564" d="M82 592v833h532v-897q0 -76 49 -123t140 -47t139.5 47t48.5 123v897h492v-833q0 -137 -43 -249.5t-128 -196t-220 -129.5t-310 -46t-310 46t-219.5 129.5t-127.5 196t-43 249.5z" />
<glyph unicode="V" horiz-adv-x="1460" d="M-4 1425h530l236 -770l221 770h481l-469 -1425h-510z" />
<glyph unicode="W" horiz-adv-x="2101" d="M-18 1425h495l201 -759l196 759h424l201 -759l197 759h424l-408 -1425h-510l-155 545l-156 -545h-510z" />
<glyph unicode="X" horiz-adv-x="1441" d="M12 0l432 688l-428 737h586l186 -323l179 323h458l-428 -684l433 -741h-586l-193 332l-180 -332h-459z" />
<glyph unicode="Y" horiz-adv-x="1374" d="M-27 1425h547l211 -452l213 452h453l-477 -831v-594h-492v598z" />
<glyph unicode="Z" horiz-adv-x="1425" d="M61 0v217q438 573 603 809h-578v399h1260v-231q-166 -294 -541 -795h563v-399h-1307z" />
<glyph unicode="[" horiz-adv-x="825" d="M98 -463v1950h695v-324h-269v-1302h269v-324h-695z" />
<glyph unicode="\" horiz-adv-x="1017" d="M25 1425h456l512 -1425h-454z" />
<glyph unicode="]" horiz-adv-x="825" d="M33 -139h268v1302h-268v324h694v-1950h-694v324z" />
<glyph unicode="^" horiz-adv-x="991" d="M53 588l226 438h434l225 -438h-348l-94 276l-95 -276h-348z" />
<glyph unicode="_" horiz-adv-x="1314" d="M20 0h1274v-301h-1274v301z" />
<glyph unicode="`" horiz-adv-x="706" d="M82 1536h389l150 -438h-314z" />
<glyph unicode="a" d="M-8 0l520 1425h510l500 -1425h-533l-55 190h-449l-63 -190h-430zM582 473h270l-123 428z" />
<glyph unicode="b" horiz-adv-x="1462" d="M98 0v1425h729q151 0 260.5 -25t171 -71t89.5 -102t28 -125q0 -146 -77 -223t-230 -103q182 -23 275.5 -109.5t93.5 -273.5q0 -173 -151 -283t-419 -110h-770zM602 348h98q106 0 155.5 28t49.5 116q0 80 -45 109.5t-160 29.5h-98v-283zM602 848h105q153 0 153 117 q0 62 -31.5 88t-121.5 26h-105v-231z" />
<glyph unicode="c" horiz-adv-x="1544" d="M45 717q0 344 193.5 544.5t549.5 200.5q323 0 499 -142t231 -448h-531q-2 102 -51 162t-148 60q-210 0 -210 -377t210 -377q109 0 153.5 55t47.5 162h531q-54 -309 -229.5 -447.5t-502.5 -138.5q-347 0 -545 200t-198 546z" />
<glyph unicode="d" horiz-adv-x="1546" d="M98 0v1425h662q361 0 551 -179t190 -529q0 -154 -37 -276t-102 -204t-159 -136t-203.5 -77.5t-239.5 -23.5h-662zM602 369h137q82 0 130 29t74 106t26 213t-26 211t-73.5 102t-130.5 27h-137v-688z" />
<glyph unicode="e" horiz-adv-x="1333" d="M98 0v1425h1174v-409h-670v-144h563v-303h-563v-159h686v-410h-1190z" />
<glyph unicode="f" horiz-adv-x="1325" d="M98 0v1425h1174v-409h-670v-193h563v-303h-563v-520h-504z" />
<glyph unicode="g" horiz-adv-x="1566" d="M45 717q0 350 197 547.5t546 197.5q321 0 490 -141t225 -449h-530q-2 113 -42.5 167.5t-142.5 54.5q-210 0 -210 -377q0 -188 48.5 -282.5t161.5 -94.5q84 0 120 43t44 135h-141v215h694v-733h-248l-61 145q-83 -97 -183 -135.5t-268 -38.5q-318 0 -509 201.5t-191 544.5 z" />
<glyph unicode="h" horiz-adv-x="1540" d="M98 0v1425h504v-491h336v491h504v-1425h-504v524h-336v-524h-504z" />
<glyph unicode="i" horiz-adv-x="700" d="M98 0v1425h504v-1425h-504z" />
<glyph unicode="j" horiz-adv-x="1073" d="M37 55l84 367q85 -41 130 -52.5t101 -11.5q53 0 80 42.5t27 101.5v514h-320v409h852v-858q0 -152 -44 -268t-122.5 -186.5t-180.5 -106t-224 -35.5q-223 0 -383 84z" />
<glyph unicode="k" horiz-adv-x="1519" d="M98 0v1425h504v-426l348 426h555l-430 -489l449 -936h-549l-258 528l-115 -131v-397h-504z" />
<glyph unicode="l" horiz-adv-x="1236" d="M98 0v1425h504v-1015h623v-410h-1127z" />
<glyph unicode="m" horiz-adv-x="1792" d="M80 0l41 1425h610l176 -520l166 520h594l45 -1425h-409l-27 807l-248 -807h-276l-240 797l-23 -797h-409z" />
<glyph unicode="n" horiz-adv-x="1507" d="M98 0v1425h520l377 -698v698h414v-1425h-520l-377 696v-696h-414z" />
<glyph unicode="o" horiz-adv-x="1613" d="M45 717q0 352 198.5 548.5t563.5 196.5t563.5 -196.5t198.5 -548.5q0 -351 -199 -548.5t-563 -197.5t-563 197.5t-199 548.5zM578 717q0 -200 52 -288.5t177 -88.5t177 88.5t52 288.5t-52 288.5t-177 88.5t-177 -88.5t-52 -288.5z" />
<glyph unicode="p" horiz-adv-x="1511" d="M98 0v1425h811q264 0 417 -133t153 -383q0 -249 -153 -381.5t-417 -132.5h-307v-395h-504zM602 717h119q114 0 169.5 36t55.5 138t-56 140t-169 38h-119v-352z" />
<glyph unicode="q" horiz-adv-x="1613" d="M45 717q0 352 198.5 548.5t563.5 196.5t563.5 -196.5t198.5 -548.5q0 -392 -246 -590q28 -76 54.5 -103.5t62.5 -27.5q29 0 53 8l35 -86q-56 -97 -153.5 -155t-215.5 -58q-93 0 -169.5 62.5t-141.5 205.5q-7 0 -20.5 -1t-20.5 -1q-364 0 -563 197.5t-199 548.5zM578 717 q0 -200 52 -288.5t177 -88.5t177 88.5t52 288.5t-52 288.5t-177 88.5t-177 -88.5t-52 -288.5z" />
<glyph unicode="r" horiz-adv-x="1517" d="M98 0v1425h811q276 0 423 -119.5t147 -326.5q0 -316 -262 -401q98 -27 144 -95t46 -141q-1 -76 21 -110q16 -25 48 -25q12 0 27 4l31 -78q-54 -72 -151.5 -117t-200.5 -45q-105 0 -179.5 46.5t-95.5 134.5q-9 38 -15 86.5t-8.5 79t-13 63.5t-28.5 51.5t-54.5 30.5 t-91.5 12h-94v-475h-504zM602 717h119q114 0 169.5 36t55.5 138t-56 140t-169 38h-119v-352z" />
<glyph unicode="s" horiz-adv-x="1445" d="M20 240l252 276q92 -82 212.5 -128t236.5 -46q127 0 127 76q0 30 -25.5 51.5t-69 35.5t-100 26.5t-119 28.5t-125 36.5t-119 54.5t-100 79.5t-69 115.5t-25.5 158q0 211 175 334.5t472 123.5q119 0 235 -28t202 -71.5t147.5 -90t91.5 -88.5l-245 -232q-57 69 -178 114.5 t-208 45.5q-114 0 -114 -70q0 -37 32 -64t84.5 -42.5t119.5 -33.5t137.5 -35t137.5 -49.5t119.5 -74t84.5 -110.5t32 -158q0 -244 -186 -374t-512 -130q-227 0 -411.5 77.5t-291.5 191.5z" />
<glyph unicode="t" horiz-adv-x="1323" d="M16 1016v409h1291v-409h-394v-1016h-503v1016h-394z" />
<glyph unicode="u" horiz-adv-x="1564" d="M82 592v833h532v-897q0 -76 49 -123t140 -47t139.5 47t48.5 123v897h492v-833q0 -137 -43 -249.5t-128 -196t-220 -129.5t-310 -46t-310 46t-219.5 129.5t-127.5 196t-43 249.5z" />
<glyph unicode="v" horiz-adv-x="1460" d="M-4 1425h530l236 -770l221 770h481l-469 -1425h-510z" />
<glyph unicode="w" horiz-adv-x="2101" d="M-18 1425h495l201 -759l196 759h424l201 -759l197 759h424l-408 -1425h-510l-155 545l-156 -545h-510z" />
<glyph unicode="x" horiz-adv-x="1441" d="M12 0l432 688l-428 737h586l186 -323l179 323h458l-428 -684l433 -741h-586l-193 332l-180 -332h-459z" />
<glyph unicode="y" horiz-adv-x="1374" d="M-27 1425h547l211 -452l213 452h453l-477 -831v-594h-492v598z" />
<glyph unicode="z" horiz-adv-x="1425" d="M61 0v217q438 573 603 809h-578v399h1260v-231q-166 -294 -541 -795h563v-399h-1307z" />
<glyph unicode="{" horiz-adv-x="901" d="M10 397v230q92 0 138.5 62.5t46.5 211.5q0 139 18.5 235t59.5 165.5t113 109.5t171 58t242 18h69v-215h-57q-43 0 -75 -11t-52.5 -35t-33.5 -52.5t-19 -75t-8 -88.5t-2 -107q0 -91 -26 -178.5t-73.5 -147.5t-103.5 -65q56 -5 104 -68.5t73.5 -151.5t25.5 -171 q0 -65 2 -107t8 -88.5t19 -75t33.5 -52.5t52.5 -35t75 -11h57v-215h-69q-143 0 -242 18t-171 58t-113 109.5t-59.5 165.5t-18.5 235q0 149 -46.5 211.5t-138.5 62.5z" />
<glyph unicode="|" horiz-adv-x="618" d="M98 0v1425h422v-1425h-422z" />
<glyph unicode="}" horiz-adv-x="901" d="M33 -248h57q43 0 75 11t53 35t33.5 52.5t19 74.5t8.5 89t2 107q0 84 25 171.5t72 151t103 68.5q-56 5 -103 65t-72 147.5t-25 178.5q0 64 -2 107t-8.5 89t-19 74.5t-33.5 52.5t-53 35t-75 11h-57v215h69q119 0 206.5 -12t156.5 -40t114 -71.5t74 -110.5t41.5 -152 t12.5 -200q0 -149 46 -211.5t138 -62.5v-230q-92 0 -138 -62.5t-46 -211.5q0 -115 -12.5 -200t-41.5 -152t-74 -110.5t-114 -71.5t-156.5 -40t-206.5 -12h-69v215z" />
<glyph unicode="~" horiz-adv-x="1187" d="M45 532q0 85 14 153t35.5 111.5t53.5 75.5t60.5 48t66 25.5t60 11t50.5 1.5q51 0 106 -19.5t95 -42.5t94.5 -42.5t105.5 -19.5q58 0 92.5 31t34.5 98h230q0 -114 -27.5 -199t-77.5 -134.5t-113 -73.5t-139 -24q-82 0 -151 19.5t-106 43t-76 43t-68 19.5q-18 0 -32 -3 t-34.5 -13.5t-32.5 -38.5t-12 -70h-229z" />
<glyph unicode="&#xa1;" horiz-adv-x="700" d="M98 0l66 920h366l66 -920h-498zM131 1245q0 97 60 157t155 60t156 -60t61 -157t-61 -157t-156 -60t-155 60t-60 157z" />
<glyph unicode="&#xa2;" horiz-adv-x="1277" d="M45 530q0 124 36 220.5t103 159t154.5 98.5t198.5 49v155h245v-153q402 -45 469 -414h-446q0 74 -41 113t-107 39q-86 0 -129 -70.5t-43 -196.5q0 -266 172 -266q66 0 107.5 40.5t42.5 115.5h446q-39 -205 -152.5 -303t-318.5 -117v-152h-245v154q-245 27 -368.5 163.5 t-123.5 364.5z" />
<glyph unicode="&#xa3;" horiz-adv-x="1417" d="M25 -4v233q101 26 176 129t75 205h-161v240h118q-65 132 -65 248q0 100 51.5 181t135.5 130t182.5 74.5t199.5 25.5q49 0 97 -3.5t108.5 -15.5t112.5 -31t103.5 -53t87.5 -78.5t58.5 -110.5t22.5 -146q0 -33 -2 -51h-455v20q0 31 -7.5 58t-31 49t-59.5 22 q-47 0 -76.5 -27.5t-29.5 -70.5q0 -40 30.5 -107t36.5 -114h248v-240h-262q-40 -105 -125 -188q71 0 156.5 -22.5t128.5 -22.5q62 0 92 35.5t30 97.5h377q0 -8 1 -24.5t1 -24.5q0 -83 -16 -150t-41 -112.5t-63 -79.5t-76 -52.5t-85 -30t-85 -15t-82 -3.5q-101 0 -304.5 36 t-314.5 36q-151 0 -288 -47z" />
<glyph unicode="&#xa5;" horiz-adv-x="1415" d="M-6 1425h547l211 -485l213 485h452l-299 -546h119v-226h-242l-55 -100h297v-225h-297v-328h-491v328h-297v225h297l-52 100h-245v226h129z" />
<glyph unicode="&#xa6;" horiz-adv-x="618" d="M98 0v614h422v-614h-422zM98 811v614h422v-614h-422z" />
<glyph unicode="&#xa7;" horiz-adv-x="1081" d="M25 164l204 242q66 -59 150 -90t168 -31q71 0 71 49q0 24 -22.5 39.5t-60 22.5t-84.5 16.5t-97 19t-97 32.5t-84.5 54.5t-60 88t-22.5 130.5q0 118 86 183q-96 86 -96 219q0 150 125 236.5t338 86.5q173 0 296.5 -52.5t198.5 -131.5l-213 -221q-46 49 -117.5 76.5 t-132.5 27.5q-40 0 -60.5 -7.5t-20.5 -31.5t30.5 -41.5t79.5 -29t107.5 -25t117.5 -37t108 -56.5t79.5 -91t30.5 -135q0 -144 -99 -193q80 -70 80 -182q0 -174 -133.5 -267.5t-366.5 -93.5q-162 0 -294.5 56t-208.5 137zM428 756q0 -23 16 -41.5t46.5 -31t66 -23t81.5 -21.5 q17 -4 26 -6q20 17 20 43q0 11 -6 21.5t-20.5 19.5t-29 16t-40.5 15.5t-45 14t-53 15t-54 15.5q-8 -13 -8 -37z" />
<glyph unicode="&#xa8;" horiz-adv-x="952" d="M6 1276q0 93 57 150t146 57q90 0 148.5 -57t58.5 -150q0 -91 -58.5 -147t-148.5 -56q-89 0 -146 56t-57 147zM537 1276q0 93 56 150t146 57t148.5 -57t58.5 -150q0 -91 -58.5 -147t-148.5 -56t-146 55.5t-56 147.5z" />
<glyph unicode="&#xa9;" horiz-adv-x="1409" d="M45 799q0 194 83.5 345t235 234.5t345.5 83.5q297 0 476 -183t179 -480t-179 -480.5t-476 -183.5q-194 0 -345.5 83.5t-235 235t-83.5 345.5zM289 799q0 -192 111.5 -303t306.5 -111q185 0 283 76.5t128 251.5h-299q-2 -63 -27 -92t-85 -29q-119 0 -119 207 q0 209 119 209q110 0 110 -119h299q-31 171 -128.5 248t-280.5 77q-195 0 -306.5 -110.5t-111.5 -304.5z" />
<glyph unicode="&#xaa;" horiz-adv-x="1067" d="M33 1065q0 79 22 149.5t64 126.5t110 88.5t154 32.5q60 0 118 -19t97 -54v61h297v-569q4 -37 39 -37q23 0 32 19.5t9 62.5h86v-21q0 -116 -62 -173.5t-165 -57.5q-179 0 -213 133q-26 -66 -93 -99.5t-145 -33.5q-86 0 -154 32.5t-110 88t-64 124.5t-22 146zM340 1065 q0 -107 30.5 -153t94.5 -46t93.5 46t29.5 153v20q-3 95 -32.5 137t-90.5 42q-64 0 -94.5 -46t-30.5 -153z" />
<glyph unicode="&#xab;" horiz-adv-x="1167" d="M86 588l229 438h314l-170 -438l170 -438h-314zM584 588l229 438h313l-170 -438l170 -438h-313z" />
<glyph unicode="&#xac;" horiz-adv-x="980" d="M35 580v249h880v-524h-249v275h-631z" />
<glyph unicode="&#xad;" horiz-adv-x="765" d="M45 362v300h676v-300h-676z" />
<glyph unicode="&#xae;" horiz-adv-x="1409" d="M45 799q0 194 83.5 345t235 234.5t345.5 83.5q297 0 476 -183t179 -480t-179 -480.5t-476 -183.5q-194 0 -345.5 83.5t-235 235t-83.5 345.5zM338 399h291v267h108l94 -267h302l-144 326q144 53 144 225q0 119 -83 186.5t-239 67.5h-473v-805zM629 807v190h76 q65 0 93.5 -18.5t28.5 -77.5q0 -56 -29 -75t-93 -19h-76z" />
<glyph unicode="&#xaf;" horiz-adv-x="1134" d="M53 1124v301h1028v-301h-1028z" />
<glyph unicode="&#xb0;" horiz-adv-x="997" d="M131 1292q0 153 107 260q109 109 262 109q152 0 258 -109q108 -108 108 -260t-108 -260q-105 -108 -258 -108q-154 0 -260 106q-109 109 -109 262zM231 1292q0 -113 78 -188q78 -78 191 -78q110 0 188 78t78 188q0 111 -78 189q-74 80 -188 80q-117 0 -191 -80 q-78 -75 -78 -189z" />
<glyph unicode="&#xb1;" horiz-adv-x="1361" d="M53 0v117h1258v-117h-1258zM53 831v115h572v576h116v-576h570v-115h-570v-569h-116v569h-572z" />
<glyph unicode="&#xb2;" horiz-adv-x="823" d="M57 879l353 202q34 19 51.5 45.5t17.5 51.5q0 21 -12.5 34t-36.5 13q-32 0 -48.5 -26t-16.5 -73h-308q0 94 27 161t77.5 104.5t115.5 54t149 16.5q354 0 354 -260q0 -105 -44.5 -164t-168.5 -116h215v-236h-702z" />
<glyph unicode="&#xb3;" horiz-adv-x="815" d="M35 971h307v-19q0 -20 15.5 -35.5t43.5 -15.5q29 0 45.5 17.5t16.5 46.5q0 59 -57 59h-64v119h64q49 0 49 53q0 24 -15 34.5t-34 10.5q-21 0 -36.5 -10.5t-15.5 -34.5v-10h-307q0 53 14 96t35.5 71.5t54 49.5t63.5 32t70.5 17.5t67.5 8t62 1.5q41 0 83 -4.5t91 -18.5 t85.5 -35.5t61.5 -59.5t25 -87q0 -41 -12 -73.5t-28.5 -50t-36.5 -30t-32 -16t-20 -4.5q121 -24 140 -139q3 -20 3 -43q0 -73 -49.5 -124.5t-129 -75t-181.5 -23.5q-64 0 -115.5 6t-106.5 25t-90 50t-54.5 85t-12.5 127z" />
<glyph unicode="&#xb4;" horiz-adv-x="706" d="M82 1096l149 438h390l-226 -438h-313z" />
<glyph unicode="&#xb5;" horiz-adv-x="1429" d="M158 -383q0 44 12 84q35 116 41 197q16 157 16 243v955h201v-688q0 -130 23 -177q18 -55 69 -86q59 -32 107 -32q65 0 147 39q90 39 174 118v826h199v-721q0 -157 12 -201q8 -36 31 -59q20 -17 47 -17q28 0 57 29q25 31 37 119h47q-18 -161 -78 -221q-59 -62 -149 -62 q-89 0 -139 53q-55 52 -64 187q-121 -133 -233 -189q-109 -53 -189 -53q-56 0 -106 23q-58 23 -101 61q-3 -166 29 -303q23 -91 23 -129q0 -66 -31 -105q-32 -38 -76 -38q-45 0 -69 34q-37 43 -37 113z" />
<glyph unicode="&#xb6;" horiz-adv-x="1781" d="M37 868q0 254 155 405.5t414 151.5h688v-1548h-442v436h-246q-258 0 -413.5 151t-155.5 404zM500 868q0 -102 55.5 -138t169.5 -36h119v353h-119q-112 0 -168.5 -38.5t-56.5 -140.5zM1417 -123v1548h266v-1548h-266z" />
<glyph unicode="&#xb7;" horiz-adv-x="567" d="M98 713q0 84 52 135t133 51q82 0 134 -51t52 -135t-52 -135.5t-134 -51.5q-81 0 -133 51.5t-52 135.5z" />
<glyph unicode="&#xb8;" horiz-adv-x="653" d="M45 -332h139q0 -47 17 -68.5t57 -21.5q88 0 88 135q0 61 -18 88t-62 27q-43 0 -73 -41l-117 84l176 229l88 -49l-51 -139h53q108 0 181 -53t73 -166q0 -110 -78.5 -170t-224.5 -60q-44 0 -84.5 10.5t-77.5 32.5t-60.5 64t-25.5 98z" />
<glyph unicode="&#xb9;" horiz-adv-x="550" d="M16 1139v159q178 30 222 127h251v-763h-307v477h-166z" />
<glyph unicode="&#xba;" horiz-adv-x="925" d="M33 1069q0 195 112.5 294t317.5 99t317.5 -99t112.5 -294q0 -181 -115 -288t-315 -107t-315 107t-115 288zM340 1069q0 -107 29.5 -152t93.5 -45t93.5 45t29.5 152t-29.5 152t-93.5 45t-93.5 -45t-29.5 -152z" />
<glyph unicode="&#xbb;" horiz-adv-x="1167" d="M41 150l170 438l-170 438h313l230 -438l-230 -438h-313zM539 150l170 438l-170 438h313l229 -438l-229 -438h-313z" />
<glyph unicode="&#xbc;" horiz-adv-x="1636" d="M16 1139v159q178 30 222 127h251v-763h-307v477h-166zM90 0l1059 1425h381l-1059 -1425h-381zM864 111v178l371 475h295v-475h78v-178h-78v-111h-307v111h-359zM1073 289h150v162z" />
<glyph unicode="&#xbd;" horiz-adv-x="1734" d="M16 1139v159q178 30 222 127h251v-763h-307v477h-166zM90 0l1059 1425h381l-1059 -1425h-381zM973 193l352 202q34 19 52 45.5t18 51.5q0 21 -12.5 34t-36.5 13q-32 0 -49 -26.5t-17 -72.5h-307q0 94 26.5 161t77.5 104.5t115.5 54t148.5 16.5q355 0 355 -260 q0 -105 -44.5 -164t-168.5 -116h215v-236h-703z" />
<glyph unicode="&#xbe;" horiz-adv-x="1781" d="M35 971h307v-19q0 -20 15.5 -35.5t43.5 -15.5q29 0 45.5 17.5t16.5 46.5q0 59 -57 59h-64v119h64q49 0 49 53q0 24 -15 34.5t-34 10.5q-21 0 -36.5 -10.5t-15.5 -34.5v-10h-307q0 53 14 96t35.5 71.5t54 49.5t63.5 32t70.5 17.5t67.5 8t62 1.5q41 0 83 -4.5t91 -18.5 t85.5 -35.5t61.5 -59.5t25 -87q0 -41 -12 -73.5t-28.5 -50t-36.5 -30t-32 -16t-20 -4.5q121 -24 140 -139q3 -20 3 -43q0 -73 -49.5 -124.5t-129 -75t-181.5 -23.5q-64 0 -115.5 6t-106.5 25t-90 50t-54.5 85t-12.5 127zM236 0l1058 1425h381l-1059 -1425h-380zM1010 111 v178l370 475h295v-475h78v-178h-78v-111h-307v111h-358zM1219 289h149v162z" />
<glyph unicode="&#xbf;" horiz-adv-x="1300" d="M57 399q0 66 14.5 120t33.5 88.5t55 67.5t61 49t70 42q31 18 105 46t113.5 55t39.5 65h366q0 -138 -49 -219t-149 -138q-8 -4 -33 -17.5t-32.5 -18.5t-26 -17.5t-25.5 -21.5t-16.5 -23t-13 -30t-3.5 -35q0 -34 26 -54t64 -20q9 0 17.5 1t23 8.5t24.5 20.5t18 39t8 62v39 h481q6 -47 6 -82q0 -81 -24.5 -148t-63.5 -112.5t-93.5 -81t-109.5 -55.5t-116.5 -33t-109.5 -17t-93 -4q-55 0 -111 7t-123 23t-124.5 48t-105.5 76.5t-76 114t-28 155.5zM516 1249q0 97 61 157t156 60t155 -60t60 -157t-60 -157t-155 -60t-156 60t-61 157z" />
<glyph unicode="&#xc0;" d="M-8 0l520 1425h510l500 -1425h-533l-55 190h-449l-63 -190h-430zM381 1935h389l150 -438h-314zM582 473h270l-123 428z" />
<glyph unicode="&#xc1;" d="M-8 0l520 1425h510l500 -1425h-533l-55 190h-449l-63 -190h-430zM582 473h270l-123 428zM612 1495l150 438h389l-225 -438h-314z" />
<glyph unicode="&#xc2;" d="M-8 0l520 1425h510l500 -1425h-533l-55 190h-449l-63 -190h-430zM297 1526l242 336h434l241 -336h-348l-110 203l-111 -203h-348zM582 473h270l-123 428z" />
<glyph unicode="&#xc3;" d="M-8 0l520 1425h510l500 -1425h-533l-55 190h-449l-63 -190h-430zM207 1487q0 85 14 153t35.5 111.5t53.5 75.5t60.5 48t66 25.5t60 11t50.5 1.5q51 0 106 -19.5t95 -43t94.5 -43t105.5 -19.5q58 0 92.5 31t34.5 98h230q0 -114 -27.5 -198.5t-77.5 -134t-113 -73.5 t-139 -24q-82 0 -151 19.5t-106 43t-76 43t-68 19.5q-18 0 -32 -3t-34.5 -13.5t-32.5 -38.5t-12 -70h-229zM582 473h270l-123 428z" />
<glyph unicode="&#xc4;" d="M-8 0l520 1425h510l500 -1425h-533l-55 190h-449l-63 -190h-430zM287 1675q0 93 56.5 150t145.5 57q90 0 148.5 -57t58.5 -150q0 -91 -58 -146.5t-149 -55.5q-89 0 -145.5 55.5t-56.5 146.5zM582 473h270l-123 428zM817 1675q0 93 56.5 150t146.5 57t148.5 -57t58.5 -150 q0 -91 -58 -146.5t-149 -55.5q-90 0 -146.5 55.5t-56.5 146.5z" />
<glyph unicode="&#xc5;" d="M-8 0l520 1425h510l500 -1425h-533l-55 190h-449l-63 -190h-430zM444 1726q0 131 89 211t223 80q133 0 222 -80t89 -211q0 -128 -89 -206t-222 -78q-134 0 -223 78t-89 206zM582 473h270l-123 428zM625 1726q0 -72 33 -112.5t98 -40.5t98 40.5t33 112.5q0 75 -33 117.5 t-98 42.5t-98 -42.5t-33 -117.5z" />
<glyph unicode="&#xc6;" horiz-adv-x="2392" d="M45 0l1020 1425h1294v-409h-669v-144h563v-303h-563v-159h686v-410h-1192v190h-432l-136 -190h-571zM954 473h230v322z" />
<glyph unicode="&#xc7;" horiz-adv-x="1544" d="M45 717q0 344 193.5 544.5t549.5 200.5q323 0 499 -142t231 -448h-531q-2 102 -51 162t-148 60q-210 0 -210 -377t210 -377q109 0 153.5 55t47.5 162h531q-54 -309 -229.5 -447.5t-502.5 -138.5q-5 0 -14 1t-14 1l-21 -61h54q108 0 181 -53t73 -166q0 -110 -79 -170 t-225 -60q-44 0 -84.5 10.5t-77.5 32.5t-60 64t-25 98h139q0 -47 17 -68.5t57 -21.5q88 0 88 135q0 61 -18 88t-62 27t-74 -41l-117 84l88 117q-270 46 -419.5 238t-149.5 491z" />
<glyph unicode="&#xc8;" horiz-adv-x="1333" d="M98 0v1425h1174v-409h-670v-144h563v-303h-563v-159h686v-410h-1190zM397 1935h389l150 -438h-313z" />
<glyph unicode="&#xc9;" horiz-adv-x="1333" d="M98 0v1425h1174v-409h-670v-144h563v-303h-563v-159h686v-410h-1190zM426 1495l149 438h390l-226 -438h-313z" />
<glyph unicode="&#xca;" horiz-adv-x="1333" d="M98 0v1425h1174v-409h-670v-144h563v-303h-563v-159h686v-410h-1190zM207 1526l242 336h434l241 -336h-348l-110 203l-111 -203h-348z" />
<glyph unicode="&#xcb;" horiz-adv-x="1333" d="M98 0v1425h1174v-409h-670v-144h563v-303h-563v-159h686v-410h-1190zM197 1675q0 93 56.5 150t145.5 57q90 0 148.5 -57t58.5 -150q0 -91 -58 -146.5t-149 -55.5q-89 0 -145.5 55.5t-56.5 146.5zM727 1675q0 93 56.5 150t146.5 57t148.5 -57t58.5 -150q0 -91 -58 -146.5 t-149 -55.5q-90 0 -146.5 55.5t-56.5 146.5z" />
<glyph unicode="&#xcc;" horiz-adv-x="700" d="M-39 1935h389l150 -438h-314zM98 0v1425h504v-1425h-504z" />
<glyph unicode="&#xcd;" horiz-adv-x="700" d="M98 0v1425h504v-1425h-504zM184 1495l150 438h389l-225 -438h-314z" />
<glyph unicode="&#xce;" horiz-adv-x="700" d="M-109 1526l242 336h434l242 -336h-348l-111 203l-110 -203h-349zM98 0v1425h504v-1425h-504z" />
<glyph unicode="&#xcf;" horiz-adv-x="700" d="M-119 1675q0 93 57 150t146 57q90 0 148.5 -57t58.5 -150q0 -91 -58 -146.5t-149 -55.5q-89 0 -146 55.5t-57 146.5zM98 0v1425h504v-1425h-504zM412 1675q0 93 56 150t146 57t148.5 -57t58.5 -150q0 -91 -58 -146.5t-149 -55.5q-90 0 -146 55t-56 147z" />
<glyph unicode="&#xd0;" horiz-adv-x="1646" d="M10 567v299h176v559h662q361 0 551 -179t190 -529q0 -154 -37 -276t-102 -204t-159 -136t-203.5 -77.5t-239.5 -23.5h-662v567h-176zM690 369h137q82 0 130 29t74 106t26 213t-26 211t-73.5 102t-130.5 27h-137v-191h160v-299h-160v-198z" />
<glyph unicode="&#xd1;" horiz-adv-x="1507" d="M98 0v1425h520l377 -698v698h414v-1425h-520l-377 696v-696h-414zM205 1487q0 85 14 153t35.5 111.5t53.5 75.5t60.5 48t66 25.5t60 11t50.5 1.5q51 0 106 -19.5t95 -43t94.5 -43t105.5 -19.5q58 0 92.5 31t34.5 98h230q0 -114 -27.5 -198.5t-77.5 -134t-113 -73.5 t-139 -24q-82 0 -151 19.5t-106 43t-76 43t-68 19.5q-18 0 -32 -3t-34.5 -13.5t-32.5 -38.5t-12 -70h-229z" />
<glyph unicode="&#xd2;" horiz-adv-x="1613" d="M45 717q0 352 198.5 548.5t563.5 196.5t563.5 -196.5t198.5 -548.5q0 -351 -199 -548.5t-563 -197.5t-563 197.5t-199 548.5zM424 1935h389l150 -438h-314zM578 717q0 -200 52 -288.5t177 -88.5t177 88.5t52 288.5t-52 288.5t-177 88.5t-177 -88.5t-52 -288.5z" />
<glyph unicode="&#xd3;" horiz-adv-x="1613" d="M45 717q0 352 198.5 548.5t563.5 196.5t563.5 -196.5t198.5 -548.5q0 -351 -199 -548.5t-563 -197.5t-563 197.5t-199 548.5zM578 717q0 -200 52 -288.5t177 -88.5t177 88.5t52 288.5t-52 288.5t-177 88.5t-177 -88.5t-52 -288.5zM633 1495l149 438h389l-225 -438h-313z " />
<glyph unicode="&#xd4;" horiz-adv-x="1613" d="M45 717q0 352 198.5 548.5t563.5 196.5t563.5 -196.5t198.5 -548.5q0 -351 -199 -548.5t-563 -197.5t-563 197.5t-199 548.5zM348 1526l242 336h434l242 -336h-348l-111 203l-111 -203h-348zM578 717q0 -200 52 -288.5t177 -88.5t177 88.5t52 288.5t-52 288.5t-177 88.5 t-177 -88.5t-52 -288.5z" />
<glyph unicode="&#xd5;" horiz-adv-x="1613" d="M45 717q0 352 198.5 548.5t563.5 196.5t563.5 -196.5t198.5 -548.5q0 -351 -199 -548.5t-563 -197.5t-563 197.5t-199 548.5zM258 1487q0 85 14 153t35.5 111.5t53.5 75.5t60.5 48t66 25.5t60 11t50.5 1.5q51 0 106 -19.5t95 -43t94.5 -43t105.5 -19.5q58 0 92.5 31 t34.5 98h230q0 -114 -27.5 -198.5t-77.5 -134t-113 -73.5t-139 -24q-82 0 -151 19.5t-106 43t-76 43t-68 19.5q-18 0 -32 -3t-34.5 -13.5t-32.5 -38.5t-12 -70h-229zM578 717q0 -200 52 -288.5t177 -88.5t177 88.5t52 288.5t-52 288.5t-177 88.5t-177 -88.5t-52 -288.5z" />
<glyph unicode="&#xd6;" horiz-adv-x="1613" d="M45 717q0 352 198.5 548.5t563.5 196.5t563.5 -196.5t198.5 -548.5q0 -351 -199 -548.5t-563 -197.5t-563 197.5t-199 548.5zM336 1675q0 93 57 150t146 57q90 0 148 -57t58 -150q0 -91 -58 -146.5t-148 -55.5q-89 0 -146 55.5t-57 146.5zM578 717q0 -200 52 -288.5 t177 -88.5t177 88.5t52 288.5t-52 288.5t-177 88.5t-177 -88.5t-52 -288.5zM866 1675q0 93 56.5 150t146.5 57t148.5 -57t58.5 -150q0 -91 -58 -146.5t-149 -55.5q-90 0 -146.5 55.5t-56.5 146.5z" />
<glyph unicode="&#xd7;" horiz-adv-x="897" d="M45 475l229 230l-221 223l176 176l222 -223l217 217l178 -178l-217 -218l223 -221l-176 -176l-223 221l-232 -229z" />
<glyph unicode="&#xd8;" horiz-adv-x="1601" d="M37 0l168 203q-166 193 -166 514q0 352 198.5 548.5t563.5 196.5q214 0 379 -73l30 36h355l-164 -198q162 -194 162 -510q0 -351 -199 -548.5t-563 -197.5q-215 0 -377 70l-35 -41h-352zM571 651l344 416q-47 27 -114 27q-125 0 -177.5 -88.5t-52.5 -288.5v-66zM688 365 q48 -25 113 -25q125 0 177 88.5t52 288.5q0 41 -2 59z" />
<glyph unicode="&#xd9;" horiz-adv-x="1564" d="M82 592v833h532v-897q0 -76 49 -123t140 -47t139.5 47t48.5 123v897h492v-833q0 -137 -43 -249.5t-128 -196t-220 -129.5t-310 -46t-310 46t-219.5 129.5t-127.5 196t-43 249.5zM414 1935h389l149 -438h-313z" />
<glyph unicode="&#xda;" horiz-adv-x="1564" d="M82 592v833h532v-897q0 -76 49 -123t140 -47t139.5 47t48.5 123v897h492v-833q0 -137 -43 -249.5t-128 -196t-220 -129.5t-310 -46t-310 46t-219.5 129.5t-127.5 196t-43 249.5zM633 1495l149 438h389l-225 -438h-313z" />
<glyph unicode="&#xdb;" horiz-adv-x="1564" d="M82 592v833h532v-897q0 -76 49 -123t140 -47t139.5 47t48.5 123v897h492v-833q0 -137 -43 -249.5t-128 -196t-220 -129.5t-310 -46t-310 46t-219.5 129.5t-127.5 196t-43 249.5zM324 1526l241 336h434l242 -336h-348l-111 203l-110 -203h-348z" />
<glyph unicode="&#xdc;" horiz-adv-x="1564" d="M82 592v833h532v-897q0 -76 49 -123t140 -47t139.5 47t48.5 123v897h492v-833q0 -137 -43 -249.5t-128 -196t-220 -129.5t-310 -46t-310 46t-219.5 129.5t-127.5 196t-43 249.5zM311 1675q0 93 57 150t146 57q90 0 148.5 -57t58.5 -150q0 -91 -58 -146.5t-149 -55.5 q-89 0 -146 55.5t-57 146.5zM842 1675q0 93 56 150t146 57t148.5 -57t58.5 -150q0 -91 -58 -146.5t-149 -55.5q-90 0 -146 55t-56 147z" />
<glyph unicode="&#xdd;" horiz-adv-x="1374" d="M-27 1425h547l211 -452l213 452h453l-477 -831v-594h-492v598zM504 1495l149 438h389l-225 -438h-313z" />
<glyph unicode="&#xde;" horiz-adv-x="1523" d="M98 0v1425h504v-198h307q264 0 417 -133t153 -383q0 -249 -153 -381.5t-417 -132.5h-307v-197h-504zM602 518h119q114 0 169.5 36t55.5 138t-56 140t-169 38h-119v-352z" />
<glyph unicode="&#xdf;" horiz-adv-x="1462" d="M94 -205v1145q0 101 26 182.5t66.5 135t99.5 93t114 60.5t122.5 33t113 15t95.5 3q48 0 99.5 -4.5t115.5 -17.5t122 -33t114 -53.5t97 -76.5t66 -105t25 -136q0 -79 -29.5 -142.5t-68 -98t-87 -58.5t-74 -31.5t-42.5 -9.5q259 -32 334 -203q27 -62 27 -139 q0 -79 -27.5 -141t-66.5 -101.5t-107.5 -68t-124 -42t-144.5 -21t-140 -8.5t-138 -1v248q24 0 40.5 0.5t46 4.5t50.5 11t46 21t40.5 33.5t26 50.5t10.5 70q0 34 -9.5 61.5t-24.5 45t-38 30.5t-44 19.5t-50 10.5t-48.5 4.5t-45.5 0.5v233q172 0 172 143q0 53 -35.5 88 t-97.5 35q-52 0 -87.5 -30.5t-35.5 -92.5v-1163h-504z" />
<glyph unicode="&#xe0;" d="M-8 0l520 1425h510l500 -1425h-533l-55 190h-449l-63 -190h-430zM381 1935h389l150 -438h-314zM582 473h270l-123 428z" />
<glyph unicode="&#xe1;" d="M-8 0l520 1425h510l500 -1425h-533l-55 190h-449l-63 -190h-430zM582 473h270l-123 428zM612 1495l150 438h389l-225 -438h-314z" />
<glyph unicode="&#xe2;" d="M-8 0l520 1425h510l500 -1425h-533l-55 190h-449l-63 -190h-430zM297 1526l242 336h434l241 -336h-348l-110 203l-111 -203h-348zM582 473h270l-123 428z" />
<glyph unicode="&#xe3;" d="M-8 0l520 1425h510l500 -1425h-533l-55 190h-449l-63 -190h-430zM207 1487q0 85 14 153t35.5 111.5t53.5 75.5t60.5 48t66 25.5t60 11t50.5 1.5q51 0 106 -19.5t95 -43t94.5 -43t105.5 -19.5q58 0 92.5 31t34.5 98h230q0 -114 -27.5 -198.5t-77.5 -134t-113 -73.5 t-139 -24q-82 0 -151 19.5t-106 43t-76 43t-68 19.5q-18 0 -32 -3t-34.5 -13.5t-32.5 -38.5t-12 -70h-229zM582 473h270l-123 428z" />
<glyph unicode="&#xe4;" d="M-8 0l520 1425h510l500 -1425h-533l-55 190h-449l-63 -190h-430zM287 1675q0 93 56.5 150t145.5 57q90 0 148.5 -57t58.5 -150q0 -91 -58 -146.5t-149 -55.5q-89 0 -145.5 55.5t-56.5 146.5zM582 473h270l-123 428zM817 1675q0 93 56.5 150t146.5 57t148.5 -57t58.5 -150 q0 -91 -58 -146.5t-149 -55.5q-90 0 -146.5 55.5t-56.5 146.5z" />
<glyph unicode="&#xe5;" d="M-8 0l520 1425h510l500 -1425h-533l-55 190h-449l-63 -190h-430zM444 1726q0 131 89 211t223 80q133 0 222 -80t89 -211q0 -128 -89 -206t-222 -78q-134 0 -223 78t-89 206zM582 473h270l-123 428zM625 1726q0 -72 33 -112.5t98 -40.5t98 40.5t33 112.5q0 75 -33 117.5 t-98 42.5t-98 -42.5t-33 -117.5z" />
<glyph unicode="&#xe6;" horiz-adv-x="2392" d="M45 0l1020 1425h1294v-409h-669v-144h563v-303h-563v-159h686v-410h-1192v190h-432l-136 -190h-571zM954 473h230v322z" />
<glyph unicode="&#xe7;" horiz-adv-x="1544" d="M45 717q0 344 193.5 544.5t549.5 200.5q323 0 499 -142t231 -448h-531q-2 102 -51 162t-148 60q-210 0 -210 -377t210 -377q109 0 153.5 55t47.5 162h531q-54 -309 -229.5 -447.5t-502.5 -138.5q-5 0 -14 1t-14 1l-21 -61h54q108 0 181 -53t73 -166q0 -110 -79 -170 t-225 -60q-44 0 -84.5 10.5t-77.5 32.5t-60 64t-25 98h139q0 -47 17 -68.5t57 -21.5q88 0 88 135q0 61 -18 88t-62 27t-74 -41l-117 84l88 117q-270 46 -419.5 238t-149.5 491z" />
<glyph unicode="&#xe8;" horiz-adv-x="1333" d="M98 0v1425h1174v-409h-670v-144h563v-303h-563v-159h686v-410h-1190zM397 1935h389l150 -438h-313z" />
<glyph unicode="&#xe9;" horiz-adv-x="1333" d="M98 0v1425h1174v-409h-670v-144h563v-303h-563v-159h686v-410h-1190zM426 1495l149 438h390l-226 -438h-313z" />
<glyph unicode="&#xea;" horiz-adv-x="1333" d="M98 0v1425h1174v-409h-670v-144h563v-303h-563v-159h686v-410h-1190zM207 1526l242 336h434l241 -336h-348l-110 203l-111 -203h-348z" />
<glyph unicode="&#xeb;" horiz-adv-x="1333" d="M98 0v1425h1174v-409h-670v-144h563v-303h-563v-159h686v-410h-1190zM197 1675q0 93 56.5 150t145.5 57q90 0 148.5 -57t58.5 -150q0 -91 -58 -146.5t-149 -55.5q-89 0 -145.5 55.5t-56.5 146.5zM727 1675q0 93 56.5 150t146.5 57t148.5 -57t58.5 -150q0 -91 -58 -146.5 t-149 -55.5q-90 0 -146.5 55.5t-56.5 146.5z" />
<glyph unicode="&#xec;" horiz-adv-x="700" d="M-39 1935h389l150 -438h-314zM98 0v1425h504v-1425h-504z" />
<glyph unicode="&#xed;" horiz-adv-x="700" d="M98 0v1425h504v-1425h-504zM184 1495l150 438h389l-225 -438h-314z" />
<glyph unicode="&#xee;" horiz-adv-x="700" d="M-109 1526l242 336h434l242 -336h-348l-111 203l-110 -203h-349zM98 0v1425h504v-1425h-504z" />
<glyph unicode="&#xef;" horiz-adv-x="700" d="M-119 1675q0 93 57 150t146 57q90 0 148.5 -57t58.5 -150q0 -91 -58 -146.5t-149 -55.5q-89 0 -146 55.5t-57 146.5zM98 0v1425h504v-1425h-504zM412 1675q0 93 56 150t146 57t148.5 -57t58.5 -150q0 -91 -58 -146.5t-149 -55.5q-90 0 -146 55t-56 147z" />
<glyph unicode="&#xf0;" horiz-adv-x="1646" d="M10 567v299h176v559h662q361 0 551 -179t190 -529q0 -154 -37 -276t-102 -204t-159 -136t-203.5 -77.5t-239.5 -23.5h-662v567h-176zM690 369h137q82 0 130 29t74 106t26 213t-26 211t-73.5 102t-130.5 27h-137v-191h160v-299h-160v-198z" />
<glyph unicode="&#xf1;" horiz-adv-x="1507" d="M98 0v1425h520l377 -698v698h414v-1425h-520l-377 696v-696h-414zM205 1487q0 85 14 153t35.5 111.5t53.5 75.5t60.5 48t66 25.5t60 11t50.5 1.5q51 0 106 -19.5t95 -43t94.5 -43t105.5 -19.5q58 0 92.5 31t34.5 98h230q0 -114 -27.5 -198.5t-77.5 -134t-113 -73.5 t-139 -24q-82 0 -151 19.5t-106 43t-76 43t-68 19.5q-18 0 -32 -3t-34.5 -13.5t-32.5 -38.5t-12 -70h-229z" />
<glyph unicode="&#xf2;" horiz-adv-x="1613" d="M45 717q0 352 198.5 548.5t563.5 196.5t563.5 -196.5t198.5 -548.5q0 -351 -199 -548.5t-563 -197.5t-563 197.5t-199 548.5zM424 1935h389l150 -438h-314zM578 717q0 -200 52 -288.5t177 -88.5t177 88.5t52 288.5t-52 288.5t-177 88.5t-177 -88.5t-52 -288.5z" />
<glyph unicode="&#xf3;" horiz-adv-x="1613" d="M45 717q0 352 198.5 548.5t563.5 196.5t563.5 -196.5t198.5 -548.5q0 -351 -199 -548.5t-563 -197.5t-563 197.5t-199 548.5zM578 717q0 -200 52 -288.5t177 -88.5t177 88.5t52 288.5t-52 288.5t-177 88.5t-177 -88.5t-52 -288.5zM633 1495l149 438h389l-225 -438h-313z " />
<glyph unicode="&#xf4;" horiz-adv-x="1613" d="M45 717q0 352 198.5 548.5t563.5 196.5t563.5 -196.5t198.5 -548.5q0 -351 -199 -548.5t-563 -197.5t-563 197.5t-199 548.5zM348 1526l242 336h434l242 -336h-348l-111 203l-111 -203h-348zM578 717q0 -200 52 -288.5t177 -88.5t177 88.5t52 288.5t-52 288.5t-177 88.5 t-177 -88.5t-52 -288.5z" />
<glyph unicode="&#xf5;" horiz-adv-x="1613" d="M45 717q0 352 198.5 548.5t563.5 196.5t563.5 -196.5t198.5 -548.5q0 -351 -199 -548.5t-563 -197.5t-563 197.5t-199 548.5zM258 1487q0 85 14 153t35.5 111.5t53.5 75.5t60.5 48t66 25.5t60 11t50.5 1.5q51 0 106 -19.5t95 -43t94.5 -43t105.5 -19.5q58 0 92.5 31 t34.5 98h230q0 -114 -27.5 -198.5t-77.5 -134t-113 -73.5t-139 -24q-82 0 -151 19.5t-106 43t-76 43t-68 19.5q-18 0 -32 -3t-34.5 -13.5t-32.5 -38.5t-12 -70h-229zM578 717q0 -200 52 -288.5t177 -88.5t177 88.5t52 288.5t-52 288.5t-177 88.5t-177 -88.5t-52 -288.5z" />
<glyph unicode="&#xf6;" horiz-adv-x="1613" d="M45 717q0 352 198.5 548.5t563.5 196.5t563.5 -196.5t198.5 -548.5q0 -351 -199 -548.5t-563 -197.5t-563 197.5t-199 548.5zM336 1675q0 93 57 150t146 57q90 0 148 -57t58 -150q0 -91 -58 -146.5t-148 -55.5q-89 0 -146 55.5t-57 146.5zM578 717q0 -200 52 -288.5 t177 -88.5t177 88.5t52 288.5t-52 288.5t-177 88.5t-177 -88.5t-52 -288.5zM866 1675q0 93 56.5 150t146.5 57t148.5 -57t58.5 -150q0 -91 -58 -146.5t-149 -55.5q-90 0 -146.5 55.5t-56.5 146.5z" />
<glyph unicode="&#xf7;" horiz-adv-x="1028" d="M74 580v249h880v-249h-880zM360 358q0 70 43.5 113t110.5 43q68 0 112 -43t44 -113q0 -68 -44 -110.5t-112 -42.5q-67 0 -110.5 42.5t-43.5 110.5zM360 1049q0 70 43.5 112.5t110.5 42.5q68 0 112 -42.5t44 -112.5q0 -68 -44 -111t-112 -43q-67 0 -110.5 43t-43.5 111z " />
<glyph unicode="&#xf8;" horiz-adv-x="1601" d="M37 0l168 203q-166 193 -166 514q0 352 198.5 548.5t563.5 196.5q214 0 379 -73l30 36h355l-164 -198q162 -194 162 -510q0 -351 -199 -548.5t-563 -197.5q-215 0 -377 70l-35 -41h-352zM571 651l344 416q-47 27 -114 27q-125 0 -177.5 -88.5t-52.5 -288.5v-66zM688 365 q48 -25 113 -25q125 0 177 88.5t52 288.5q0 41 -2 59z" />
<glyph unicode="&#xf9;" horiz-adv-x="1564" d="M82 592v833h532v-897q0 -76 49 -123t140 -47t139.5 47t48.5 123v897h492v-833q0 -137 -43 -249.5t-128 -196t-220 -129.5t-310 -46t-310 46t-219.5 129.5t-127.5 196t-43 249.5zM414 1935h389l149 -438h-313z" />
<glyph unicode="&#xfa;" horiz-adv-x="1564" d="M82 592v833h532v-897q0 -76 49 -123t140 -47t139.5 47t48.5 123v897h492v-833q0 -137 -43 -249.5t-128 -196t-220 -129.5t-310 -46t-310 46t-219.5 129.5t-127.5 196t-43 249.5zM633 1495l149 438h389l-225 -438h-313z" />
<glyph unicode="&#xfb;" horiz-adv-x="1564" d="M82 592v833h532v-897q0 -76 49 -123t140 -47t139.5 47t48.5 123v897h492v-833q0 -137 -43 -249.5t-128 -196t-220 -129.5t-310 -46t-310 46t-219.5 129.5t-127.5 196t-43 249.5zM324 1526l241 336h434l242 -336h-348l-111 203l-110 -203h-348z" />
<glyph unicode="&#xfc;" horiz-adv-x="1564" d="M82 592v833h532v-897q0 -76 49 -123t140 -47t139.5 47t48.5 123v897h492v-833q0 -137 -43 -249.5t-128 -196t-220 -129.5t-310 -46t-310 46t-219.5 129.5t-127.5 196t-43 249.5zM311 1675q0 93 57 150t146 57q90 0 148.5 -57t58.5 -150q0 -91 -58 -146.5t-149 -55.5 q-89 0 -146 55.5t-57 146.5zM842 1675q0 93 56 150t146 57t148.5 -57t58.5 -150q0 -91 -58 -146.5t-149 -55.5q-90 0 -146 55t-56 147z" />
<glyph unicode="&#xfd;" horiz-adv-x="1374" d="M-27 1425h547l211 -452l213 452h453l-477 -831v-594h-492v598zM504 1495l149 438h389l-225 -438h-313z" />
<glyph unicode="&#xfe;" horiz-adv-x="1523" d="M98 0v1425h504v-198h307q264 0 417 -133t153 -383q0 -249 -153 -381.5t-417 -132.5h-307v-197h-504zM602 518h119q114 0 169.5 36t55.5 138t-56 140t-169 38h-119v-352z" />
<glyph unicode="&#xff;" horiz-adv-x="1374" d="M-18 1425h546l211 -452l213 452h453l-477 -831v-594h-492v598zM225 1677q0 93 57 150t146 57q90 0 148.5 -57t58.5 -150q0 -91 -58 -146.5t-149 -55.5q-89 0 -146 55.5t-57 146.5zM756 1677q0 93 56 150t146 57t148.5 -57t58.5 -150q0 -91 -58 -146.5t-149 -55.5 q-90 0 -146 55t-56 147z" />
<glyph unicode="&#x152;" horiz-adv-x="2041" d="M45 713q0 135 27.5 244t79.5 186t120 132.5t155.5 87.5t180 47t199.5 15h1173v-409h-669v-144h563v-303h-563v-159h686v-410h-1190q-129 0 -237.5 21t-207.5 72t-167.5 130.5t-109 204t-40.5 285.5zM578 713q0 -69 6 -122t16 -89t27.5 -61t34 -39t43 -21.5t48 -9.5 t54.5 -2v688q-33 0 -54.5 -2t-48 -9.5t-43 -21.5t-34 -39t-27.5 -61t-16 -89t-6 -122z" />
<glyph unicode="&#x153;" horiz-adv-x="2041" d="M45 713q0 135 27.5 244t79.5 186t120 132.5t155.5 87.5t180 47t199.5 15h1173v-409h-669v-144h563v-303h-563v-159h686v-410h-1190q-129 0 -237.5 21t-207.5 72t-167.5 130.5t-109 204t-40.5 285.5zM578 713q0 -69 6 -122t16 -89t27.5 -61t34 -39t43 -21.5t48 -9.5 t54.5 -2v688q-33 0 -54.5 -2t-48 -9.5t-43 -21.5t-34 -39t-27.5 -61t-16 -89t-6 -122z" />
<glyph unicode="&#x178;" horiz-adv-x="1374" d="M-18 1425h546l211 -452l213 452h453l-477 -831v-594h-492v598zM225 1677q0 93 57 150t146 57q90 0 148.5 -57t58.5 -150q0 -91 -58 -146.5t-149 -55.5q-89 0 -146 55.5t-57 146.5zM756 1677q0 93 56 150t146 57t148.5 -57t58.5 -150q0 -91 -58 -146.5t-149 -55.5 q-90 0 -146 55t-56 147z" />
<glyph unicode="&#x2c6;" horiz-adv-x="991" d="M37 1126l242 336h434l241 -336h-348l-110 203l-111 -203h-348z" />
<glyph unicode="&#x2dc;" horiz-adv-x="1187" d="M45 1087q0 85 14 153t35.5 111.5t53.5 75.5t60.5 48t66 25.5t60 11t50.5 1.5q51 0 106 -19.5t95 -42.5t94.5 -42.5t105.5 -19.5q58 0 92.5 31t34.5 98h230q0 -114 -27.5 -199t-77.5 -134.5t-113 -73.5t-139 -24q-82 0 -151 19.5t-106 43t-76 43t-68 19.5q-18 0 -32 -3 t-34.5 -13.5t-32.5 -38.5t-12 -70h-229z" />
<glyph unicode="&#x2000;" horiz-adv-x="1008" />
<glyph unicode="&#x2001;" horiz-adv-x="2017" />
<glyph unicode="&#x2002;" horiz-adv-x="1008" />
<glyph unicode="&#x2003;" horiz-adv-x="2017" />
<glyph unicode="&#x2004;" horiz-adv-x="672" />
<glyph unicode="&#x2005;" horiz-adv-x="504" />
<glyph unicode="&#x2006;" horiz-adv-x="336" />
<glyph unicode="&#x2007;" horiz-adv-x="336" />
<glyph unicode="&#x2008;" horiz-adv-x="252" />
<glyph unicode="&#x2009;" horiz-adv-x="403" />
<glyph unicode="&#x200a;" horiz-adv-x="112" />
<glyph unicode="&#x2010;" horiz-adv-x="765" d="M45 362v300h676v-300h-676z" />
<glyph unicode="&#x2011;" horiz-adv-x="765" d="M45 362v300h676v-300h-676z" />
<glyph unicode="&#x2012;" horiz-adv-x="765" d="M45 362v300h676v-300h-676z" />
<glyph unicode="&#x2013;" horiz-adv-x="1134" d="M45 362v300h1045v-300h-1045z" />
<glyph unicode="&#x2014;" horiz-adv-x="1482" d="M45 362v300h1393v-300h-1393z" />
<glyph unicode="&#x2018;" horiz-adv-x="514" d="M66 1096q0 76 28.5 143.5t73.5 113.5t99 75t108 34l26 -96q-67 -23 -106 -70t-39 -100h20q82 0 131.5 -51.5t49.5 -132.5q0 -84 -51.5 -136.5t-133.5 -52.5q-206 0 -206 273z" />
<glyph unicode="&#x2019;" horiz-adv-x="514" d="M57 1274q0 84 51.5 136t133.5 52q207 0 207 -272q0 -76 -28.5 -144t-74 -114t-99.5 -75t-108 -34l-26 97q67 23 106 70t39 100h-20q-82 0 -131.5 51.5t-49.5 132.5z" />
<glyph unicode="&#x201a;" horiz-adv-x="514" d="M57 156q0 84 51.5 136t133.5 52q207 0 207 -272q0 -76 -28.5 -144t-74 -114t-99.5 -75t-108 -34l-26 96q67 23 106 70t39 100h-20q-82 0 -131.5 52t-49.5 133z" />
<glyph unicode="&#x201c;" horiz-adv-x="970" d="M66 1096q0 76 28.5 143.5t73.5 113.5t99 75t108 34l26 -96q-67 -23 -106 -70t-39 -100h20q82 0 131.5 -51.5t49.5 -132.5q0 -84 -51.5 -136.5t-133.5 -52.5q-206 0 -206 273zM522 1096q0 76 28.5 143.5t73.5 113.5t99 75t108 34l27 -96q-67 -23 -106 -70t-39 -100h20 q82 0 131 -51.5t49 -132.5q0 -85 -51 -137t-133 -52q-207 0 -207 273z" />
<glyph unicode="&#x201d;" horiz-adv-x="970" d="M57 1274q0 84 51.5 136t133.5 52q207 0 207 -272q0 -76 -28.5 -144t-74 -114t-99.5 -75t-108 -34l-26 97q67 23 106 70t39 100h-20q-82 0 -131.5 51.5t-49.5 132.5zM514 1274q0 84 51 136t133 52q207 0 207 -272q0 -76 -28.5 -144t-73.5 -114t-99 -75t-108 -34l-27 97 q67 23 106.5 70t39.5 100h-21q-82 0 -131 51.5t-49 132.5z" />
<glyph unicode="&#x201e;" horiz-adv-x="970" d="M57 156q0 84 51.5 136t133.5 52q207 0 207 -272q0 -76 -28.5 -144t-74 -114t-99.5 -75t-108 -34l-26 96q67 23 106 70t39 100h-20q-82 0 -131.5 52t-49.5 133zM514 156q0 84 51 136t133 52q207 0 207 -272q0 -76 -28.5 -144t-73.5 -114t-99 -75t-108 -34l-27 96 q67 23 106.5 70t39.5 100h-21q-82 0 -131 52t-49 133z" />
<glyph unicode="&#x2022;" horiz-adv-x="718" d="M82 711q0 126 77.5 203t198.5 77q123 0 201 -77t78 -203q0 -125 -78 -202t-201 -77q-121 0 -198.5 77t-77.5 202z" />
<glyph unicode="&#x2026;" horiz-adv-x="1427" d="M57 158q0 84 52 135t133 51q83 0 135.5 -51t52.5 -135t-52.5 -135.5t-135.5 -51.5q-81 0 -133 51.5t-52 135.5zM528 158q0 84 52 135t133 51q82 0 134 -51t52 -135t-52 -135.5t-134 -51.5q-81 0 -133 51.5t-52 135.5zM997 158q0 84 52 135t135 51q81 0 133.5 -51 t52.5 -135t-52.5 -135.5t-133.5 -51.5q-82 0 -134.5 51.5t-52.5 135.5z" />
<glyph unicode="&#x202f;" horiz-adv-x="403" />
<glyph unicode="&#x2039;" horiz-adv-x="669" d="M86 588l229 438h314l-170 -438l170 -438h-314z" />
<glyph unicode="&#x203a;" horiz-adv-x="669" d="M41 150l170 438l-170 438h313l230 -438l-230 -438h-313z" />
<glyph unicode="&#x205f;" horiz-adv-x="504" />
<glyph unicode="&#x20ac;" horiz-adv-x="1525" d="M51 449l41 225h111v74h-99l41 225h93q67 228 251.5 358.5t456.5 130.5q183 0 321.5 -56.5t254.5 -164.5l-203 -295q-41 36 -64 53.5t-65.5 44t-89 38.5t-99.5 12q-164 0 -223 -121h330l-41 -225h-332v-74h320l-41 -225h-230q61 -109 217 -109q39 0 76.5 7.5t63 16 t56.5 26.5t45.5 28t42.5 31.5t36 27.5l201 -293q-230 -213 -576 -213q-272 0 -455 125.5t-251 352.5h-189z" />
<glyph unicode="&#x2122;" horiz-adv-x="1787" d="M4 1188v237h746v-237h-228v-586h-291v586h-227zM784 602l23 823h344l100 -301l97 301h333l27 -823h-227l-15 449l-147 -449h-154l-141 438l-12 -438h-228z" />
<glyph unicode="&#x25fc;" horiz-adv-x="1423" d="M0 0v1423h1423v-1423h-1423z" />
</font>
</defs>
</svg>
